<svg width="24" height="28" viewBox="0 0 24 28" fill="none" xmlns="http://www.w3.org/2000/svg">
<path fill-rule="evenodd" clip-rule="evenodd" d="M2.81143 0H21.1886C22.7383 0 24 1.24645 24 2.79097V27.0968L21.0514 24.5226L19.392 23.0052L17.6366 21.3929L18.3634 23.8994H2.81143C1.26172 23.8994 0 22.6529 0 21.1084V2.79097C0 1.24645 1.26172 0 2.81143 0ZM14.9898 16.5968C15.4013 17.1116 15.895 17.6942 15.895 17.6942C18.9258 17.5994 20.0916 15.6348 20.0916 15.6348C20.0916 11.2723 18.1167 7.73612 18.1167 7.73612C16.1418 6.2729 14.263 6.31354 14.263 6.31354L14.071 6.53032C16.4024 7.23483 17.4859 8.25096 17.4859 8.25096C16.0596 7.47871 14.6607 7.09935 13.3578 6.95032C12.3704 6.84193 11.4241 6.86903 10.5876 6.97741C10.5157 6.97741 10.4544 6.98774 10.3852 6.99937L10.3852 6.99938L10.3544 7.00451C9.87442 7.04516 8.7087 7.22129 7.24127 7.85806C6.73385 8.08838 6.43213 8.25096 6.43213 8.25096C6.43213 8.25096 7.57042 7.18064 10.039 6.47612L9.90185 6.31354C9.90185 6.31354 8.02299 6.2729 6.04813 7.73612C6.04813 7.73612 4.07327 11.2723 4.07327 15.6348C4.07327 15.6348 5.22527 17.5994 8.25613 17.6942C8.25613 17.6942 8.76356 17.0845 9.17499 16.5697C7.43327 16.0548 6.77499 14.971 6.77499 14.971C6.77499 14.971 6.91213 15.0658 7.15899 15.2013C7.1727 15.2148 7.18642 15.2284 7.21385 15.2419C7.23442 15.2555 7.25499 15.2656 7.27556 15.2758C7.29613 15.286 7.3167 15.2961 7.33727 15.3097C7.68013 15.4994 8.02299 15.6484 8.33842 15.7703C8.9007 15.9871 9.5727 16.2039 10.3544 16.3529C11.383 16.5426 12.5898 16.6103 13.9064 16.3665C14.551 16.2581 15.2093 16.0684 15.895 15.7839C16.375 15.6077 16.9099 15.3503 17.4721 14.9845C17.4721 14.9845 16.7864 16.0955 14.9898 16.5968ZM8.51627 13.1613C8.51627 12.3104 9.12855 11.6129 9.9041 11.6129C10.6797 11.6129 11.3055 12.3104 11.2919 13.1613C11.2919 14.0122 10.6797 14.7097 9.9041 14.7097C9.14215 14.7097 8.51627 14.0122 8.51627 13.1613ZM14.8704 11.6129C14.0948 11.6129 13.4825 12.3104 13.4825 13.1613C13.4825 14.0122 14.1084 14.7097 14.8704 14.7097C15.6459 14.7097 16.2582 14.0122 16.2582 13.1613C16.2582 12.3104 15.6459 11.6129 14.8704 11.6129Z" fill="#262641"/>
</svg>
