<svg width="18" height="20" viewBox="0 0 18 20" fill="none" xmlns="http://www.w3.org/2000/svg">
<path fill-rule="evenodd" clip-rule="evenodd" d="M2.89242 4.3748C3.71112 4.3748 4.3748 3.71112 4.3748 2.89242C4.3748 2.07373 3.71112 1.41005 2.89242 1.41005C2.07373 1.41005 1.41005 2.07373 1.41005 2.89242C1.41005 3.71112 2.07373 4.3748 2.89242 4.3748ZM3.60365 5.69675C4.8572 5.37981 5.78485 4.24445 5.78485 2.89242C5.78485 1.29498 4.48986 0 2.89242 0C1.29498 0 0 1.29498 0 2.89242C0 4.24802 0.932564 5.38582 2.19115 5.69925V7.60904C2.19115 9.24727 3.51919 10.5753 5.15741 10.5753H7.98607V14.3007C6.72749 14.6141 5.79492 15.7519 5.79492 17.1075C5.79492 18.7049 7.08991 19.9999 8.68735 19.9999C10.2848 19.9999 11.5798 18.7049 11.5798 17.1075C11.5798 15.7555 10.6521 14.6201 9.39858 14.3032V10.5753H12.2272C13.8655 10.5753 15.1935 9.24727 15.1935 7.60905V5.69156C16.4368 5.36758 17.3545 4.23717 17.3545 2.89242C17.3545 1.29498 16.0595 0 14.4621 0C12.8646 0 11.5696 1.29498 11.5696 2.89242C11.5696 4.25527 12.5122 5.39798 13.781 5.70421V7.60905C13.781 8.46716 13.0854 9.1628 12.2272 9.1628H5.15741C4.29929 9.1628 3.60365 8.46716 3.60365 7.60904V5.69675ZM14.4621 4.3748C15.2807 4.3748 15.9444 3.71112 15.9444 2.89242C15.9444 2.07373 15.2807 1.41005 14.4621 1.41005C13.6434 1.41005 12.9797 2.07373 12.9797 2.89242C12.9797 3.71112 13.6434 4.3748 14.4621 4.3748ZM10.1697 17.1075C10.1697 17.9262 9.50604 18.5899 8.68735 18.5899C7.86866 18.5899 7.20497 17.9262 7.20497 17.1075C7.20497 16.2888 7.86866 15.6251 8.68735 15.6251C9.50604 15.6251 10.1697 16.2888 10.1697 17.1075Z" fill="#333333"/>
</svg>
