<svg width="16" height="16" viewBox="0 0 16 16" fill="none" xmlns="http://www.w3.org/2000/svg">
<rect width="16" height="16" fill="#E5E5E5"/>
<g clip-path="url(#clip0)">
<rect width="1440" height="900" transform="translate(-380 -793)" fill="#FFFFFB"/>
<g filter="url(#filter0_dd)">
<rect x="-12" y="-12" width="705" height="40" rx="8" fill="#262641"/>
<g clip-path="url(#clip1)">
<mask id="mask0" mask-type="alpha" maskUnits="userSpaceOnUse" x="0" y="0" width="16" height="16">
<g clip-path="url(#clip2)">
<path d="M11.2998 11.2328C9.47738 13.0553 6.52262 13.0553 4.70017 11.2328C2.87772 9.41039 2.87772 6.45562 4.70017 4.63317M11.2998 11.2328C13.1223 9.41039 13.1223 6.45562 11.2998 4.63317C9.47738 2.81073 6.52262 2.81073 4.70017 4.63317M11.2998 11.2328L4.70017 4.63317" stroke="#0E0E2C" stroke-width="1.5"/>
</g>
</mask>
<g mask="url(#mask0)">
<rect width="16" height="16" fill="#828282"/>
</g>
</g>
</g>
</g>
<defs>
<filter id="filter0_dd" x="-20" y="-16" width="721" height="56" filterUnits="userSpaceOnUse" color-interpolation-filters="sRGB">
<feFlood flood-opacity="0" result="BackgroundImageFix"/>
<feColorMatrix in="SourceAlpha" type="matrix" values="0 0 0 0 0 0 0 0 0 0 0 0 0 0 0 0 0 0 127 0"/>
<feOffset dy="4"/>
<feGaussianBlur stdDeviation="4"/>
<feColorMatrix type="matrix" values="0 0 0 0 0 0 0 0 0 0 0 0 0 0 0 0 0 0 0.2 0"/>
<feBlend mode="normal" in2="BackgroundImageFix" result="effect1_dropShadow"/>
<feColorMatrix in="SourceAlpha" type="matrix" values="0 0 0 0 0 0 0 0 0 0 0 0 0 0 0 0 0 0 127 0"/>
<feOffset dy="1"/>
<feGaussianBlur stdDeviation="1"/>
<feColorMatrix type="matrix" values="0 0 0 0 0 0 0 0 0 0 0 0 0 0 0 0 0 0 0.15 0"/>
<feBlend mode="normal" in2="effect1_dropShadow" result="effect2_dropShadow"/>
<feBlend mode="normal" in="SourceGraphic" in2="effect2_dropShadow" result="shape"/>
</filter>
<clipPath id="clip0">
<rect width="1440" height="900" fill="white" transform="translate(-380 -793)"/>
</clipPath>
<clipPath id="clip1">
<rect width="681" height="39" fill="white" transform="translate(0 -11.5)"/>
</clipPath>
<clipPath id="clip2">
<rect width="16" height="16" fill="white"/>
</clipPath>
</defs>
</svg>
