<svg width="24" height="21" viewBox="0 0 24 21" fill="none" xmlns="http://www.w3.org/2000/svg">
<path d="M0.362484 9.85575C2.81776 8.50336 5.5585 7.37457 8.11931 6.24005C12.5249 4.38179 16.948 2.55574 21.4157 0.855709C22.285 0.566058 23.8469 0.28283 24 1.57097C23.9161 3.3944 23.5711 5.20715 23.3345 7.0199C22.734 11.0063 22.0398 14.9791 21.3629 18.9523C21.1296 20.2759 19.4717 20.9609 18.4109 20.114C15.8614 18.392 13.2924 16.6866 10.7755 14.9246C9.95103 14.0869 10.7156 12.8838 11.4519 12.2856C13.5517 10.2162 15.7785 8.45808 17.7686 6.2818C18.3054 4.98553 16.7193 6.07798 16.1961 6.41274C13.3215 8.39369 10.5172 10.4956 7.48645 12.2366C5.93834 13.0888 4.13399 12.3605 2.58658 11.885C1.19916 11.3105 -0.833963 10.7318 0.362343 9.85592L0.362484 9.85575Z" fill="#262641"/>
</svg>
