<svg width="24" height="21" viewBox="0 0 24 21" fill="none" xmlns="http://www.w3.org/2000/svg">
<path d="M11.6534 5.90768L11.7054 6.76553L10.8383 6.66049C7.68221 6.25782 4.92494 4.89227 2.58386 2.59883L1.43933 1.46086L1.14453 2.30121C0.52024 4.17447 0.91909 6.15278 2.21969 7.48332C2.91334 8.21863 2.75727 8.32367 1.56072 7.88599C1.14453 7.74593 0.78036 7.64089 0.745677 7.69341C0.624288 7.81596 1.04048 9.40911 1.36996 10.0394C1.82084 10.9147 2.73993 11.7726 3.74573 12.2803L4.59545 12.683L3.58965 12.7005C2.61854 12.7005 2.58386 12.718 2.68791 13.0856C3.03473 14.2236 4.4047 15.4316 5.93073 15.9568L7.00589 16.3244L6.06946 16.8847C4.68216 17.69 3.05207 18.1452 1.42199 18.1802C0.641629 18.1977 0 18.2677 0 18.3203C0 18.4953 2.11564 19.4757 3.34688 19.8609C7.04058 20.9989 11.4279 20.5087 14.7228 18.5654C17.0639 17.1823 19.4049 14.4337 20.4974 11.7726C21.087 10.3545 21.6767 7.76344 21.6767 6.52043C21.6767 5.7151 21.7287 5.61006 22.6998 4.64716C23.2721 4.08694 23.8096 3.47418 23.9137 3.29911C24.0871 2.96648 24.0698 2.96648 23.1853 3.2641C21.7113 3.78931 21.5032 3.71929 22.2316 2.93146C22.7692 2.37123 23.4108 1.35582 23.4108 1.0582C23.4108 1.00568 23.1507 1.09321 22.8559 1.25078C22.5437 1.42585 21.8501 1.68845 21.3298 1.84602L20.3934 2.14364L19.5437 1.5659C19.0755 1.25078 18.4165 0.900633 18.0697 0.79559C17.1853 0.55049 15.8326 0.585504 15.0349 0.865618C12.8673 1.65344 11.4973 3.68427 11.6534 5.90768Z" fill="#262641"/>
</svg>
