<svg width="300" height="300" viewBox="0 0 300 300" fill="none" xmlns="http://www.w3.org/2000/svg">
<path d="M233.479 133.587C229.306 133.56 225.133 133.52 220.946 133.493C220.973 136.787 220.973 140.053 220.986 143.333C230.333 144.84 239.853 143.493 249.213 142.147C257.306 140.987 265.399 139.827 273.519 138.64C273.719 135 273.266 131.333 272.133 127.853C260.333 133.667 246.653 133.693 233.479 133.587Z" fill="#FAB796"/>
<path d="M130.173 133.293C130.026 136.48 129.853 139.666 129.706 142.84C129.679 143.093 129.706 143.36 129.866 143.493C129.999 143.6 130.199 143.6 130.386 143.586C135.093 143.333 139.813 143.066 144.533 142.8C150.053 142.506 155.573 142.2 161.013 141.12C161.333 141.04 161.679 140.96 161.906 140.72C162.146 140.453 162.186 140.066 162.213 139.706C162.359 137.866 162.466 136.04 162.626 134.2L162.213 134.16C151.533 134.84 140.813 134.506 130.199 133.16L130.173 133.293Z" fill="#5A5A66"/>
<path d="M141.386 60.0664C139.48 62.1864 135.533 62.5731 134.093 60.1597C136.146 64.2131 139.2 67.9597 142 71.5331C140.68 68.0264 141.533 64.4797 143.08 61.7064C144.933 58.3864 147.933 55.7197 151.64 54.3331L151.32 53.5197C148.773 54.7331 145.493 54.4797 144.013 52.1731C143.68 54.9731 143.28 57.9864 141.386 60.0664Z" fill="#FAB796"/>
<path d="M213.96 206.107C212.68 205.747 211.253 205.094 210.333 204.174C211.56 206.694 211.333 209.68 212.013 212.414C212.173 212.96 212.347 213.52 212.587 214.054C213.827 216.8 216.52 218.64 219.293 219.827C225.147 222.334 231.707 222.534 238.067 222.174C256.307 221.094 274.28 215.494 289.893 205.974C290.8 205.427 291.747 204.774 292.107 203.787C292.413 202.934 292.213 201.987 292 201.094C291.187 197.694 290.96 192.334 290.213 188.747C290.36 189.747 290.093 190.814 289.64 191.747C287.533 196.12 282.48 198.64 278.053 200.667C259.507 209.24 241.773 210.88 221.133 208.294C218.973 208 216.067 206.694 213.96 206.107Z" fill="#5A5A66"/>
<path d="M43.8928 246.893C43.9861 246.707 43.9461 246.493 43.9061 246.293C43.6928 245.16 43.4928 244.027 43.2795 242.88C42.7728 242.88 35.2395 244.347 27.7195 245.867C22.5595 246.92 17.3861 247.973 14.4928 248.587C13.1861 248.867 12.3461 249.067 12.1995 249.12C12.5061 250.973 12.8661 252.827 13.2795 254.667C13.3461 254.947 13.4395 255.267 13.7061 255.427C13.9061 255.533 14.1728 255.507 14.4261 255.467C17.5328 254.853 20.3461 253.187 23.2928 251.973C29.6261 249.36 36.5728 248.867 43.2261 247.28C43.4928 247.2 43.7728 247.12 43.8928 246.893Z" fill="#9797AA"/>
<path d="M235.466 19.8934C235.08 23.88 233.813 29.6 235.04 33.36C235.973 36.1867 239.173 37.4267 241.213 39.48C248.386 46.6 254.826 54.64 261.546 62.16C263.866 61.84 266.16 61.3467 268.426 60.6934C267.32 55.5067 266.066 50.3467 264.72 45.1734C263.373 39.9867 261.946 34.8 260.506 29.5734C260.08 28.0934 259.68 26.6 259.266 25.0934C254.093 20.9734 247.16 19.8134 240.56 19.72C238.866 19.7067 237.146 19.7334 235.466 19.8934Z" fill="#FAB796"/>
<path d="M34.3733 234.68C22.92 236.2 11.4667 237.72 0 239.24L0.0266673 239.373C0.466667 241.266 0.920001 243.173 1.37333 245.066C1.42667 245.293 1.48 245.546 1.69333 245.68C1.88 245.773 2.10667 245.733 2.32 245.693C6.01333 244.92 9.70667 244.146 13.4 243.386C17.8 242.453 22.2133 241.52 26.6267 240.6C29.2933 240.04 31.96 239.48 34.64 238.92C34.5467 237.506 34.4533 236.08 34.3733 234.68Z" fill="#9797AA"/>
<path d="M156.52 65.48C155.92 65.6534 155.4 66.1334 155.16 66.72C155.026 67.0667 154.973 67.44 154.973 67.8267C154.946 68.1067 154.973 68.3867 155.08 68.6534C155.24 69.04 155.6 69.3067 155.973 69.4534C156.36 69.6134 156.773 69.64 157.186 69.64C157.52 69.64 157.853 69.64 158.16 69.5067C158.426 69.4 158.64 69.2134 158.826 69C159.226 68.5067 159.4 67.84 159.28 67.2134C159.066 65.96 157.786 65.12 156.52 65.48ZM151.64 54.3334C154.48 53.2534 157.746 52.9334 161.186 53.6267C168.68 55.1867 175.88 60.68 176.773 68.5067C176.8 68.92 176.84 69.36 176.866 69.8C173.84 77.4667 165.413 81.8934 155.973 80.7734C151 80.1867 145.16 77.6 142.626 72.9334C142.373 72.48 142.16 72 142 71.5334C140.68 68.0267 141.533 64.48 143.08 61.7067C144.933 58.3867 147.933 55.72 151.64 54.3334Z" fill="#9797AA"/>
<path d="M237.12 3.05176e-05C236.587 6.48003 236.053 12.9734 235.507 19.4667C235.48 19.6 235.48 19.7334 235.467 19.8934C237.147 19.7334 238.867 19.7067 240.56 19.72C247.16 19.8134 254.093 20.9734 259.267 25.0934C259.68 26.6 260.08 28.0934 260.507 29.5734L265.693 27.9334C265.613 27.4667 265.627 27 265.653 26.52C265.84 20.2134 264.853 13.8534 262.72 7.9067C260.013 10.68 257.6 13.76 255.56 17.04C254.04 12.92 252.88 8.6667 252.107 4.33336C250.813 7.12003 249.08 9.7067 247 11.9734C246.707 12.2934 246.347 12.64 245.933 12.6C245.533 12.56 245.24 12.2134 245 11.8934C242.107 8.1067 239.467 4.1467 237.12 3.05176e-05Z" fill="#9797AA"/>
<path d="M138.893 227.987C132.746 235.12 123.986 239.973 114.679 241.48L114.813 242.293C115.533 244.44 116.253 246.613 116.973 248.76C117.186 249.32 117.426 249.987 117.999 250.213C118.546 250.427 119.159 250.16 119.666 249.92C126.586 246.48 133.106 242.253 139.026 237.32C139.546 236.88 140.079 236.427 140.319 235.813C140.666 235 140.439 234.067 140.226 233.213C139.786 231.467 139.333 229.72 138.893 227.987Z" fill="#9797AA"/>
<path d="M99.0936 206.587C98.6002 208.88 98.5602 211.293 99.2802 213.52C100.387 216.853 103.107 219.44 106.054 221.387C113.627 226.32 124.347 227.467 131.507 221.907C138.654 216.36 143.054 193.08 117.387 191.653C108.88 191.707 100.84 198.267 99.0936 206.587Z" fill="#FAB796"/>
<path d="M107.479 135.093C96.9728 148.36 94.3328 167.413 100.839 183.026C103.733 181.813 106.919 181.24 110.053 181.346C105.133 174.053 107.039 163.68 112.533 156.813C114.786 153.973 117.786 150.746 116.693 147.306C116.346 146.266 115.639 145.373 114.959 144.52C112.453 141.36 109.959 138.253 107.479 135.093Z" fill="#FAB796"/>
<path d="M151.32 53.5203L151.64 54.3336C154.48 53.2536 157.747 52.9336 161.187 53.627C168.68 55.187 175.88 60.6803 176.773 68.507C176.72 66.2136 177.253 64.067 178.827 62.2936C174.4 59.7736 172.08 54.067 173.467 49.1603C170.453 51.1203 166.693 52.2803 163.2 51.3736C159.72 50.4536 156.773 47.0403 157.253 43.467C156.4 46.7336 155.427 50.2136 152.92 52.467C152.44 52.8936 151.893 53.2536 151.32 53.5203Z" fill="#FAB796"/>
<path d="M132.987 43.8269C145.653 33.5069 164.053 35.9469 180.067 39.2936L180.04 39.3869C186.947 44.8003 188.867 54.2936 189.987 62.9736C191.6 75.5736 191.387 88.3336 192.813 100.96C193.04 102.947 187.76 103.787 182.227 103.6V103.614C180.96 110.64 182 118.68 175.52 121.68C169.04 124.68 161.707 125.334 154.573 125.294C141.467 125.2 126.587 121.734 120.28 110.267C116.04 102.547 116.8 93.1603 117.68 84.4269C119.16 69.6269 121.48 53.2269 132.987 43.8269ZM142 71.5336C142.16 72.0003 142.373 72.4803 142.627 72.9336C145.16 77.6003 151 80.1869 155.973 80.7736C165.413 81.8936 173.84 77.4669 176.867 69.8003C176.853 69.3603 176.84 68.9203 176.773 68.5069C176.72 66.2136 177.253 64.0669 178.827 62.2936C174.4 59.7736 172.08 54.0669 173.467 49.1603C170.453 51.1203 166.693 52.2803 163.2 51.3736C159.72 50.4536 156.773 47.0403 157.253 43.4669C156.4 46.7336 155.427 50.2136 152.92 52.4669C152.44 52.8936 151.893 53.2536 151.32 53.5203C148.773 54.7336 145.493 54.4803 144.013 52.1736C143.68 54.9736 143.28 57.9869 141.387 60.0669C139.48 62.1869 135.533 62.5736 134.093 60.1603C136.147 64.2136 139.2 67.9603 142 71.5336ZM177.067 103.134C178.96 101.814 178.893 98.9736 178.267 96.7336C178.147 96.2936 178 95.8403 177.707 95.4803C176.973 94.5736 175.56 94.5736 174.48 95.0136C172.027 96.0003 170.587 98.8403 171.267 101.414C172.52 102.214 174.627 102.774 177.067 103.134Z" fill="#F3D9DA"/>
<path d="M34.6 226.36C33.1734 220.92 36.2267 215.014 40.9067 211.907C45.56 208.787 51.4667 208.04 57.0534 208.44C62.6534 208.84 68.1334 210.267 73.68 211.107C74.6667 207.227 75.6534 203.347 76.64 199.48L76.8134 199.08C65.2267 193.867 51.7734 190.774 39.96 195.414C27.6267 200.254 19.6134 212.667 16.28 225.467C16.32 226.467 16.4534 227.307 16.48 228.32C22.8534 228.254 28.3867 227.747 34.6 226.36Z" fill="#FAB796"/>
<path d="M219.293 219.827C216.52 218.64 213.827 216.8 212.587 214.054C212.347 213.52 212.173 212.96 212.013 212.414C212.68 216.787 214.68 225.867 215.32 230.12C215.387 230.467 215.44 230.8 215.493 231.147C215.68 232.134 215.973 233.107 216.573 233.88C217.32 234.827 218.44 235.387 219.547 235.854C224.133 237.854 229.093 238.934 234.053 239.614C255.96 242.68 278.84 238.027 297.8 226.667C296.653 219.88 294.387 210.254 292.107 203.787C291.747 204.774 290.8 205.427 289.893 205.974C274.28 215.494 256.307 221.094 238.067 222.174C231.707 222.534 225.147 222.334 219.293 219.827Z" fill="#5A5A66"/>
<path d="M168.707 143.533C155.16 146.4 141.293 147.613 127.467 147.093V147.227C127.84 149.893 128.227 152.533 128.6 155.187C128.653 155.587 128.733 156.013 129.053 156.24C129.32 156.44 129.667 156.427 129.987 156.427C142.28 156.067 154.72 155.667 166.52 152.253C167.32 149.36 168.12 146.467 168.907 143.587L168.707 143.533Z" fill="#FAB796"/>
<path d="M244.613 148.12C241.68 148.507 214.133 151.92 213.866 150.827C214.773 154.467 215.666 158.12 216.573 161.76C216.746 162.427 216.933 163.133 217.466 163.533C218 163.933 218.746 163.933 219.413 163.893C239.28 163.147 259.133 161.653 278.893 159.387C279.36 159.333 279.88 159.28 280.2 158.92C280.506 158.573 280.56 158.08 280.586 157.627C280.853 153.347 280.92 149.053 280.786 144.76C268.693 145.48 256.626 146.6 244.613 148.12Z" fill="#5A5A66"/>
<path d="M157.253 297.694C151.68 298.36 146.053 298.987 140.493 299.534C143.533 310.96 147.28 322.2 151.64 333.187C189.866 328.094 228.093 323.014 266.32 317.934C266.72 319.24 267.36 320.454 268.213 321.534C268.76 322.254 269.413 322.907 270.12 323.48C272.72 325.627 276.186 326.747 279.533 326.187C285.146 325.28 289.626 319.84 289.453 314.16C289.28 308.507 284.48 303.334 278.813 302.774C277.546 288.627 277.613 271.16 276.346 257.027C273.306 258.2 269.773 259.187 266.24 259.827C267.053 272.814 267.173 289.12 266.2 302.067C256.08 305.107 245.48 306.174 234.973 307.214C210.666 309.627 186.386 312.04 162.093 314.454C159.946 309.04 158.333 303.414 157.253 297.694Z" fill="#FAB796"/>
<path d="M220.973 95.3335C220.76 96.4535 220.72 96.8268 220.933 97.9335C225.413 97.2668 229.893 96.5868 234.373 95.9201C233.6 94.6135 232.493 93.2801 231.2 92.4268C230.653 92.0668 230.066 91.7735 229.453 91.5335C228.826 91.2401 228.186 91.0135 227.506 90.8801C225.733 90.5468 223.773 91.0401 222.506 92.3335C221.706 93.1335 221.2 94.2135 220.973 95.3335Z" fill="#FAB796"/>
<path d="M107.747 276C106.52 284.533 106.12 293.16 106.547 301.76C117.027 301.48 128.653 300.68 140.493 299.533C146.053 298.987 151.68 298.36 157.253 297.693C168.973 296.293 180.427 294.613 190.68 292.867C192.587 292.533 194.693 292.093 195.813 290.493C196.747 289.187 196.72 287.413 196.653 285.8C195.173 250.48 191.907 215.227 186.88 180.227C177.88 181.827 161.12 185.667 156.68 193.64C153.493 199.36 154.187 206.36 155.013 212.853C156.333 223.6 157.667 234.333 159 245.093C159.24 246.987 159.427 249.08 158.373 250.653C157.44 252.04 155.747 252.707 154.173 253.28C141.2 258.027 128.2 262.76 115.2 267.507C112.947 268.347 110.533 269.28 109.187 271.267C108.253 272.653 107.973 274.36 107.747 276Z" fill="#9797AA"/>
<path d="M32.1462 256.64C30.3595 257.52 25.3062 258.667 24.1462 260.067C23.7462 260.533 22.7462 265.507 24.0795 265.08C33.1995 262.04 42.0395 258.2 50.5328 253.653C50.1595 252.493 49.7728 251.347 49.4128 250.16C49.3195 249.853 49.1862 249.533 48.9062 249.387C48.6395 249.253 48.3328 249.32 48.0528 249.427C42.4128 251.08 37.3728 254.093 32.1462 256.64Z" fill="#9797AA"/>
<path d="M174.479 95.0132C172.026 95.9998 170.586 98.8398 171.266 101.413C172.519 102.213 174.626 102.773 177.066 103.133C178.959 101.813 178.893 98.9732 178.266 96.7332C178.146 96.2932 177.999 95.8398 177.706 95.4798C176.973 94.5732 175.559 94.5732 174.479 95.0132Z" fill="#FAB796"/>
<path d="M223.306 171.04C216.679 172.133 215.026 172.56 208.373 174.053C209.013 177.32 209.679 180.587 210.333 183.84C210.493 184.653 210.693 185.533 211.333 186.04C212.013 186.573 212.973 186.56 213.826 186.507C237.493 184.947 261.053 181.64 284.226 176.627C285.026 176.453 285.879 176.227 286.373 175.573C286.759 175.067 286.813 174.387 286.826 173.733C286.986 170.067 286.533 166.36 285.506 162.827C264.666 164.64 243.893 167.387 223.306 171.04Z" fill="#FAB796"/>
<path d="M210.333 204.173C211.253 205.093 212.68 205.747 213.96 206.107C216.066 206.693 218.973 208 221.133 208.293C241.773 210.88 259.506 209.24 278.053 200.667C282.48 198.64 287.533 196.12 289.64 191.747C290.093 190.813 290.36 189.747 290.213 188.747C290.173 188.547 290.133 188.36 290.093 188.187C289.28 185.493 285.786 184.827 282.96 184.773C270.946 184.56 259.04 186.707 247.226 188.853C239.066 190.32 231.04 190.773 222.586 192.28C217.906 193.093 209.04 195.28 209.266 201.947C209.306 202.827 209.706 203.547 210.333 204.173Z" fill="#5A5A66"/>
<path d="M146 235.84C139.946 244.307 130.826 250.52 120.733 253.067L120.92 253.773C121.306 255.76 121.773 257.747 122.373 259.68C122.466 259.987 122.573 260.32 122.88 260.44C123.093 260.52 123.333 260.44 123.546 260.36C133.653 256.867 142.88 250.907 150.24 243.133C150.413 242.947 150.613 242.72 150.586 242.453C150.56 242.28 150.466 242.147 150.373 242.013C148.933 239.947 147.466 237.893 146 235.84Z" fill="#9797AA"/>
<path d="M222.653 23.9332C226.413 21.4132 230.907 20.2932 235.467 19.8932C235.08 23.8798 233.813 29.5998 235.04 33.3598C235.973 36.1865 239.173 37.4265 241.213 39.4798C248.387 46.5998 254.827 54.6398 261.547 62.1598C263.867 61.8398 266.16 61.3465 268.427 60.6932C271.307 74.1732 273.12 87.7332 272.56 101.867C272.413 105.453 271.96 109.387 269.293 111.8C267.32 113.573 264.547 114.107 261.92 114.493C253.813 115.693 245.587 116.267 237.387 116.173C234.907 116.147 232.36 116.04 230.08 115.053C224.08 112.466 222.107 104.387 220.933 97.9465V97.9332C225.413 97.2665 229.893 96.5865 234.373 95.9198C233.6 94.6132 232.493 93.2798 231.2 92.4265C230.653 92.0665 230.067 91.7732 229.453 91.5332C228.827 91.2398 228.187 91.0132 227.507 90.8798C225.733 90.5465 223.773 91.0398 222.507 92.3332C221.707 93.1332 221.2 94.2132 220.973 95.3332C220.76 96.4532 220.72 96.8265 220.933 97.9332C215.52 98.7465 210.08 99.5465 204.667 100.36C203.587 81.9332 205.44 63.3332 210.2 45.5065C212.373 37.3065 215.613 28.6932 222.653 23.9332ZM261 76.9465C262.12 72.9198 260.88 69.5732 257 68.0265C250.867 66.7998 243.16 67.2132 240.093 72.6665C237.133 77.9465 241.373 85.3998 247.36 86.3998C253.333 87.4132 259.387 82.7865 261 76.9465Z" fill="#9797AA"/>
<path d="M216.573 233.88C215.973 233.107 215.68 232.134 215.493 231.147L215.44 231.16C216.547 237.507 218.16 246.294 219.52 252.6C219.653 253.16 219.787 253.774 220.173 254.227C220.72 254.84 221.6 254.987 222.413 255.134C227.413 256.134 230.187 257.4 235.16 258.467C241.947 259.934 250.413 260.747 257.613 260.72C260.333 260.72 263.293 260.4 266.24 259.827C269.773 259.187 273.307 258.2 276.347 257.027C283.24 254.36 287.16 252.654 293.693 247.6C296.973 245.067 300 241.52 300.187 237.374C300.333 233.8 298.12 230.494 297.907 226.934L297.8 226.667C278.84 238.027 255.96 242.68 234.053 239.614C229.093 238.934 224.133 237.854 219.547 235.854C218.44 235.387 217.32 234.827 216.573 233.88Z" fill="#5A5A66"/>
</svg>
