<svg width="263" height="728" viewBox="0 0 263 728" fill="none" xmlns="http://www.w3.org/2000/svg">
<path d="M121.625 690.16C124.638 688.752 128.175 688.822 131.374 689.671C139.389 691.753 145.543 699.21 146.753 707.284C147.055 709.261 147.032 711.297 146.683 713.287C146.625 713.682 146.532 714.101 146.439 714.496C143.856 724.92 124.789 731.551 119.531 725.373C117.053 722.523 116.041 718.708 115.227 715.032C114.215 710.483 113.366 705.806 114.122 701.223C114.843 696.639 117.414 692.102 121.625 690.16Z" fill="#F3D9DA"/>
<path d="M166.378 127.565C159.003 127.612 152.686 127.053 145.532 127.402C110.516 129.089 74.4876 134.126 39.9951 140.397C43.7177 124.366 46.5678 108.149 48.5222 91.8164C48.6967 90.4204 48.7898 88.8383 47.8824 87.7797C47.1146 86.8839 45.8466 86.6396 44.66 86.4535C29.909 84.1501 14.8673 83.6848 -3.43444e-06 85.0691C3.76916 70.0157 7.54997 54.9856 11.3308 39.9322C13.4364 31.5796 15.4606 23.4712 18.1246 15.2814C37.6917 12.7686 57.2471 9.39499 76.8375 6.49832C75.5346 10.4885 60.2136 49.3668 59.1317 52.7637C66.6468 55.2997 74.1735 57.8125 81.6769 60.3485C82.5843 60.651 83.5848 61.0349 84.0501 61.8725C84.434 62.5937 84.3525 63.4546 84.2362 64.2457C82.6425 75.7044 79.4899 86.9421 74.8947 97.5632C97.7424 100.111 148.894 97.6796 171.648 94.4804C171.73 94.4804 171.811 94.4921 171.893 94.4921C170.369 105.567 168.519 116.595 166.378 127.565Z" fill="#9797AA"/>
<path d="M214.877 707.819C192.902 714.531 169.461 716.416 146.683 713.287C147.032 711.297 147.056 709.262 146.753 707.284C162.097 706.644 177.686 705.923 192.274 701.072C207.037 696.163 220.892 686.391 227.127 672.128C231.571 661.972 231.78 650.549 231.932 639.462C234.223 473.13 236.504 306.798 238.795 140.478C238.981 128.042 238.132 113.536 227.941 106.451C224.324 103.938 219.961 102.752 215.703 101.623C201.93 97.9238 186.946 95.4693 171.893 94.4921C172.591 89.641 173.207 84.7783 173.754 79.904C186.585 78.4149 197.346 77.3447 210.224 77.9845C223.114 78.6127 236.131 81.4977 247.148 88.2101C249.323 89.5363 251.441 91.0369 253.104 92.9681C254.977 95.19 256.164 97.8773 257.339 100.53C259.13 104.59 261.061 110.662 261.085 115.094C261.62 190.943 262.155 266.792 262.667 342.64C263.144 410.02 263.609 477.469 259.386 544.733C256.42 592.138 251.08 639.66 238.237 685.39C236.725 690.8 234.968 696.395 230.92 700.281C229.779 701.386 228.488 702.316 227.092 703.108C224.742 704.469 222.125 705.434 219.531 706.33C217.995 706.853 216.436 707.354 214.877 707.819Z" fill="#9797AA"/>
<path d="M171.892 94.4924C172.59 89.6414 173.207 84.7787 173.754 79.9044C176.767 53.939 178.116 27.7642 177.802 1.62438C150.15 -1.58639 122.498 0.367994 94.8455 3.96266C88.8428 4.74209 82.84 5.60294 76.8373 6.4987C75.5344 10.4889 60.2134 49.3671 59.1315 52.764C66.6466 55.3001 74.1733 57.8129 81.6767 60.3489C82.5841 60.6514 83.5846 61.0353 84.0499 61.8729C84.4338 62.5941 84.3524 63.455 84.236 64.246C82.6423 75.7048 79.4897 86.9425 74.8946 97.5636C97.7422 100.111 148.894 97.6799 171.648 94.4808C171.73 94.4808 171.811 94.4924 171.892 94.4924ZM143.798 28.532C151.092 29.5092 158.409 31.0797 164.889 32.9527C159.003 49.1461 155.222 66.0841 153.663 83.2431C139.261 81.882 124.941 79.7299 110.771 76.8216C109.364 76.5307 107.747 76.077 107.107 74.7741C106.642 73.7969 106.874 72.6336 107.142 71.575C108.712 64.944 110.283 58.3015 111.865 51.6473C112.063 50.8562 112.249 49.9721 111.877 49.2508C111.562 48.5994 110.899 48.2038 110.283 47.8316C106.072 45.4351 101.884 43.027 97.6957 40.6422C98.7194 33.6507 103.431 30.8587 107.747 29.5674C112.098 28.2761 117.577 27.5432 122.102 27.7293C130.024 28.0434 135.957 27.4618 143.798 28.532Z" fill="#F2DADB"/>
</svg>
