<svg width="316" height="236" viewBox="0 0 316 236" fill="none" xmlns="http://www.w3.org/2000/svg">
<mask id="mask0" mask-type="alpha" maskUnits="userSpaceOnUse" x="0" y="0" width="333" height="236">
<rect width="333" height="236" fill="#C4C4C4"/>
</mask>
<g mask="url(#mask0)">
<path d="M81.6945 197.956C83.0545 197.023 84.8412 195.796 86.7878 194.409C86.7878 194.396 86.7745 194.396 86.7745 194.369C86.4812 194.489 86.1878 194.556 85.8945 194.609C84.4012 195.569 82.9878 196.636 81.6678 197.809C81.2012 198.209 80.7745 198.609 80.3078 199.009C80.1212 199.196 79.9345 199.343 79.7612 199.556C79.2145 200.103 78.6412 200.663 78.0945 201.249C77.9345 201.449 77.8012 201.663 77.6678 201.889C77.8278 201.716 77.9745 201.556 78.1345 201.396C78.2412 201.209 78.3745 201.036 78.5078 200.849C78.9212 200.449 79.3478 200.063 79.8012 199.689C79.9745 199.503 80.1612 199.343 80.3478 199.156C80.7745 198.743 81.2278 198.343 81.6945 197.956Z" fill="#F3D9DA"/>
<path d="M90.3475 182.018C94.4808 182.178 98.6141 181.751 102.667 180.898C105.454 180.351 108.201 179.591 110.894 178.698C107.267 174.871 104.081 171.058 101.321 167.245H101.254C97.6008 167.391 94.0275 166.498 90.6808 165.031C90.2275 164.831 89.7875 164.618 89.3741 164.405C84.2141 161.845 79.5208 157.871 77.1475 152.631C74.9608 147.845 74.8408 141.578 77.5208 137.071C76.9741 137.685 76.4141 138.311 75.8808 138.911C73.1341 142.138 67.5475 150.445 63.6141 158.405C66.7875 165.885 71.4008 173.071 77.5208 179.831C82.8008 181.151 87.7475 181.925 90.3475 182.018Z" fill="white"/>
<path d="M202.987 156.045C204.267 155.218 206.161 154.511 208.467 153.951C209.241 153.751 210.067 153.591 210.921 153.431C222.627 151.258 241.321 152.151 245.441 158.098C256.627 174.325 230.427 177.178 225.761 184.205C223.027 188.325 221.947 193.458 229.334 193.645C230.201 193.671 235.681 192.031 242.214 189.898C244.374 189.178 246.681 188.418 248.961 187.658C253.001 185.551 257.361 185.098 261.174 183.965C261.281 183.791 261.401 183.605 261.534 183.418L261.467 183.258C263.867 182.378 265.721 181.645 266.681 181.205C268.001 180.085 269.134 178.591 269.987 176.511C270.667 174.671 270.881 172.751 270.747 170.831C270.734 170.698 270.721 170.551 270.707 170.418C270.694 170.151 270.654 169.885 270.614 169.631C270.361 167.818 269.801 166.031 269.067 164.311C268.974 164.098 268.881 163.898 268.787 163.685C268.601 163.285 268.414 162.885 268.201 162.498C268.027 162.178 267.854 161.858 267.681 161.538C267.001 160.325 266.241 159.191 265.454 158.138C265.241 157.845 265.027 157.551 264.801 157.285C264.361 156.725 263.907 156.205 263.467 155.711C262.787 154.951 262.121 154.285 261.481 153.738C250.534 144.098 227.027 136.365 212.841 136.725C176.027 137.578 170.214 182.631 188.067 207.951C199.841 224.671 220.454 224.125 239.574 226.325C241.694 226.565 243.814 226.858 245.894 227.218C247.361 227.591 248.881 228.125 250.481 228.711C252.067 229.311 253.707 229.965 255.374 230.671C270.761 236.485 296.107 243.405 303.001 222.658C305.321 208.845 300.707 192.711 286.881 188.098C284.574 204.231 268.454 211.138 252.001 213.658C250.041 213.805 248.067 213.858 246.107 213.818C244.174 213.765 242.227 213.631 240.347 213.391C238.134 213.365 235.681 212.925 233.054 212.138C232.281 211.898 231.481 211.631 230.681 211.325C230.681 211.325 230.681 211.338 230.667 211.325C229.867 211.031 229.054 210.698 228.241 210.338C227.147 209.871 226.041 209.351 224.934 208.765C224.934 208.765 224.921 208.778 224.921 208.765C224.081 208.338 223.254 207.885 222.414 207.405C221.854 207.085 221.307 206.765 220.747 206.418C220.187 206.085 219.627 205.738 219.067 205.365C217.401 204.298 215.761 203.125 214.147 201.898C212.534 200.658 210.974 199.351 209.454 197.991C208.961 197.538 208.467 197.085 207.974 196.605C206.507 195.218 205.107 193.765 203.801 192.271C203.361 191.778 202.934 191.271 202.521 190.765C202.107 190.258 201.707 189.751 201.321 189.245C193.627 179.165 190.614 167.845 198.867 159.405C199.147 159.111 199.441 158.818 199.761 158.538C200.707 157.671 201.774 156.845 202.987 156.045Z" fill="#F3D9DA"/>
<path d="M156.454 138.458C156.374 136.978 156.228 135.458 156.001 133.978C155.908 133.311 155.868 132.645 155.588 132.058C155.161 131.298 154.441 130.751 153.721 130.231C150.494 127.911 147.108 125.751 143.614 123.805C142.681 125.431 141.828 127.058 141.028 128.711C146.561 131.005 151.748 134.205 156.454 138.458Z" fill="#F3D9DA"/>
<path d="M60.2009 210.302C65.5343 202.236 71.6943 195.609 78.8143 189.889C71.5343 195.636 65.0409 202.422 60.2009 210.302Z" fill="#9797AA"/>
<path d="M59.6676 146.098C56.3743 131.125 58.201 115.418 64.3876 100.098C63.401 99.9646 62.4143 99.9646 61.4143 100.125C56.0943 100.938 52.401 106.258 51.641 111.551C50.8676 116.898 52.3343 122.258 53.641 127.458C55.3876 134.551 56.9076 141.711 58.1876 148.885C58.6143 147.938 59.1343 147.005 59.6676 146.111V146.098Z" fill="#9797AA"/>
<path d="M91.8813 32.2841C93.1746 41.1508 93.8946 48.8708 94.548 57.1508C95.4546 56.2574 96.4013 55.3774 97.3613 54.5241C100.455 47.0174 103.548 39.5374 106.628 32.0574C108.161 28.3241 109.721 24.4708 109.628 20.4574C109.508 16.4308 107.295 12.1774 103.428 11.0174C98.8013 9.61742 93.8546 13.3374 92.1746 17.8841C90.4813 22.4441 91.1613 27.4974 91.8813 32.2841Z" fill="#F3D9DA"/>
<path d="M61.0545 82.3373C58.8411 72.0973 56.6411 61.8573 54.4411 51.6039C53.4944 47.1773 52.3744 42.4573 48.9878 39.4573C45.6011 36.4573 39.1878 36.6439 37.4678 40.8306C36.2011 43.9639 38.0811 47.4173 39.9611 50.2573C47.1878 61.0973 53.3345 72.3239 61.0545 82.3373Z" fill="#F3D9DA"/>
<path d="M93.2146 188.903C96.0012 184.356 96.3346 184.676 103.535 178.596C100.735 178.756 97.9612 179.196 95.3079 180.023C93.4946 180.609 91.7746 181.369 90.0946 182.249C90.0946 182.263 90.0946 182.263 90.0812 182.249C89.0812 182.783 88.1079 183.356 87.1479 183.956C87.1479 183.956 87.1746 183.956 87.1479 183.983C86.8546 186.449 86.6946 188.956 86.6946 191.463C89.6946 189.756 93.5746 187.943 93.2146 188.903Z" fill="#F3D9DA"/>
<path d="M102.734 181.031L103.814 185.938C104.227 185.778 104.694 185.671 105.121 185.631C107.401 185.378 109.587 186.711 111.854 186.938C113.907 187.124 115.881 186.431 117.667 185.351C115.294 183.164 113.067 180.978 111.001 178.791C108.281 179.698 105.507 180.458 102.734 181.031Z" fill="#9797AA"/>
<path d="M150.241 167.298C150.228 158.045 152.321 149.045 156.575 140.925C156.575 140.151 156.548 139.365 156.495 138.605C152.255 150.045 144.108 159.911 134.135 167.218C134.548 171.498 135.401 175.711 136.668 179.831C137.441 180.045 138.255 180.125 139.068 180.031C142.441 179.645 144.815 176.658 146.615 173.818C147.948 171.698 149.161 169.538 150.241 167.298Z" fill="#9797AA"/>
<path d="M214.148 201.898C215.761 203.124 217.401 204.284 219.068 205.364C219.628 205.738 220.188 206.084 220.748 206.418C221.308 206.751 221.868 207.084 222.414 207.404C223.254 207.871 224.081 208.324 224.921 208.764C224.921 208.778 224.934 208.764 224.934 208.764C226.041 209.338 227.148 209.858 228.241 210.338C229.068 210.684 229.868 211.018 230.668 211.324C230.681 211.338 230.681 211.324 230.681 211.324C231.481 211.618 232.281 211.884 233.054 212.124C221.081 204.964 212.441 196.671 207.441 183.218C205.881 178.951 200.841 155.924 210.481 153.524C209.774 153.644 209.108 153.791 208.468 153.951C206.161 154.511 204.268 155.218 202.988 156.044C201.774 156.844 200.708 157.671 199.761 158.538C199.454 158.818 199.148 159.111 198.868 159.404C190.614 167.844 193.628 179.164 201.321 189.244C201.708 189.751 202.108 190.258 202.521 190.764C202.934 191.271 203.361 191.778 203.801 192.271C205.108 193.764 206.508 195.218 207.974 196.604C208.454 197.071 208.948 197.538 209.454 197.991C210.974 199.351 212.534 200.658 214.148 201.898Z" fill="#9797AA"/>
<path d="M60.2008 145.311C65.0408 137.431 71.5342 130.644 78.8142 124.898C80.5208 123.551 82.2942 122.231 84.1075 120.964C84.9875 120.351 85.8675 119.764 86.7742 119.218C86.8808 119.124 87.0142 119.044 87.1475 118.964C89.1608 103.298 97.4942 88.6842 110.174 76.0309C107.227 76.1775 104.387 78.1375 102.507 80.5509C100.161 83.5509 98.8142 87.1775 96.7475 90.3375C95.1475 82.9642 86.9208 77.7375 79.5475 79.4575C80.0542 87.4442 79.4808 95.4975 77.8808 103.364C73.2408 103.444 68.8942 100.631 64.3875 100.098C58.2008 115.418 56.3742 131.124 59.6675 146.098C59.8542 145.831 60.0275 145.564 60.2008 145.311Z" fill="#F3D9DA"/>
<path d="M162.974 117.311C164.508 113.311 166.454 109.484 166.201 105.191C166.108 103.564 165.534 101.911 164.601 100.537C155.748 107.057 148.761 114.991 143.668 123.711C147.148 125.657 150.494 127.804 153.708 130.097C154.401 130.617 155.148 131.164 155.548 131.937C155.561 131.977 155.588 132.017 155.588 132.057C158.201 127.271 161.041 122.404 162.974 117.311Z" fill="#9797AA"/>
<path d="M77.8813 103.364C79.4813 95.4977 80.0546 87.4444 79.5479 79.4578L75.7213 79.1911C71.0413 86.0044 67.2413 93.0177 64.3879 100.098C68.8946 100.631 73.2413 103.444 77.8813 103.364Z" fill="#9797AA"/>
<path d="M122.361 174.138C120.054 169.551 118.228 164.884 116.921 160.178C116.428 160.578 115.921 160.991 115.401 161.364C115.054 161.658 114.694 161.924 114.335 162.164C112.495 163.498 110.534 164.631 108.481 165.511C107.388 165.991 106.268 166.364 105.121 166.644C105.108 166.671 105.081 166.671 105.068 166.671C105.014 166.684 104.974 166.698 104.921 166.698C103.761 166.991 102.548 167.178 101.321 167.244C104.081 171.058 107.268 174.871 110.894 178.698C113.081 177.978 115.228 177.178 117.361 176.324C117.988 176.071 118.588 175.831 119.228 175.564C120.268 175.124 121.334 174.644 122.361 174.138Z" fill="white"/>
<path d="M160.775 29.4176C160.428 23.6576 153.628 20.6309 147.921 21.8176C146.388 22.4709 144.868 23.1776 143.361 23.8976C138.308 27.5643 135.841 34.0443 134.148 40.1776C132.655 45.6309 131.588 52.6709 130.828 59.4843C136.201 55.9909 141.961 52.7376 148.028 49.7909C150.735 46.3376 153.455 42.8843 156.188 39.4176C158.508 36.4843 160.961 33.1776 160.775 29.4176Z" fill="#F3D9DA"/>
<path d="M77.5213 137.071C77.5746 137.018 77.6413 136.951 77.6679 136.898C77.8013 136.671 77.9346 136.458 78.0946 136.258C78.6413 135.671 79.2146 135.111 79.7613 134.565C79.9346 134.351 80.1213 134.205 80.3079 134.018C80.7746 133.618 81.2013 133.218 81.6679 132.818C82.9879 131.645 84.4013 130.578 85.8946 129.618C84.5746 129.925 83.6013 129.818 83.3479 128.885C83.2813 128.605 84.8146 127.551 86.6946 126.471C86.6946 123.965 86.8546 121.458 87.1479 118.991C87.0146 119.045 86.9079 119.138 86.7746 119.218C85.8679 119.765 84.9879 120.351 84.1079 120.965C82.2946 122.231 80.5213 123.551 78.8146 124.898C71.6946 130.618 65.5346 137.245 60.2013 145.311C60.0279 145.578 59.8546 145.845 59.7079 146.111C59.7079 146.138 59.6813 146.138 59.6813 146.151C60.5746 150.231 61.8546 154.285 63.5346 158.231C67.4679 150.271 73.0413 142.005 75.7879 138.805C76.5079 137.951 77.2679 137.085 78.0279 136.271C77.8413 136.538 77.6679 136.791 77.5213 137.071Z" fill="#F3D9DA"/>
<path d="M180.001 225.378C160.308 209.098 150.268 187.565 150.241 167.298C149.161 169.538 147.948 171.698 146.614 173.818C144.814 176.658 142.441 179.645 139.068 180.031C138.254 180.125 137.441 180.045 136.668 179.831C141.321 195.405 151.761 209.618 168.281 219.538C168.334 219.565 168.374 219.591 168.428 219.618C172.134 221.538 175.988 223.458 180.001 225.378Z" fill="#F3D9DA"/>
<path d="M134.121 167.084C144.068 159.778 152.201 149.911 156.441 138.471C151.708 134.204 146.534 131.031 141.014 128.738C135.161 140.831 132.801 154.138 134.121 167.084Z" fill="white"/>
<path d="M127.734 177.191C128.334 176.884 129.027 176.604 129.721 176.644C130.547 176.684 131.281 177.178 131.974 177.631C133.427 178.564 134.987 179.458 136.667 179.831C135.401 175.711 134.547 171.498 134.134 167.218C130.454 169.938 126.521 172.311 122.427 174.271C123.227 175.884 124.081 177.484 125.014 179.058C125.867 178.351 126.761 177.724 127.734 177.191Z" fill="#FAB796"/>
<path d="M2.92103 79.6973C0.707693 83.3107 2.76103 88.2307 6.13436 90.7907C9.49436 93.3373 13.7877 94.2307 17.8544 95.444C25.3344 97.6573 32.4544 101.151 38.7877 105.724C34.1744 97.5773 28.0544 89.2573 20.601 83.5507C15.4144 79.5773 7.97436 75.5507 2.92103 79.6973Z" fill="#F3D9DA"/>
<path d="M119.388 157.951C119.655 157.697 119.921 157.431 120.188 157.164C120.415 156.937 120.641 156.711 120.868 156.471C122.454 154.857 123.908 153.111 125.041 151.151C130.108 142.431 128.268 131.657 121.174 124.471L121.201 124.071H121.254V124.057H121.214C120.628 124.004 120.014 123.964 119.428 123.911C118.535 123.844 117.641 123.804 116.748 123.791C116.295 125.391 115.895 127.004 115.575 128.604C116.055 129.364 116.441 130.177 116.708 131.044C117.335 132.831 117.535 134.804 117.241 136.764C117.188 137.151 117.108 137.511 117.041 137.871C116.921 138.337 116.775 138.804 116.601 139.257C116.415 139.711 116.215 140.151 115.988 140.564V140.577C115.535 141.444 114.975 142.244 114.321 142.977C114.428 148.697 115.308 154.457 116.921 160.151C117.108 160.004 117.321 159.831 117.508 159.684C117.748 159.471 117.974 159.271 118.201 159.057C118.615 158.697 119.001 158.324 119.388 157.951Z" fill="#9797AA"/>
<path d="M88.561 193.116C90.921 191.943 93.441 191.076 96.0277 190.476C96.121 190.436 96.201 190.423 96.2944 190.396H96.3077C99.081 189.73 101.948 189.356 104.801 189.103C105.321 189.063 105.841 189.036 106.361 189.01C107.268 188.93 108.188 188.876 109.094 188.823H109.134V188.796C111.174 188.716 113.201 188.703 115.214 188.743C115.401 188.743 115.588 188.743 115.774 188.756C116.094 188.756 116.428 188.77 116.748 188.783C117.628 185.743 118.721 182.743 120.081 179.823C115.214 178.796 110.241 178.316 105.214 178.49C104.748 178.53 104.254 178.543 103.801 178.583C107.481 178.796 97.0144 186.996 88.561 193.116Z" fill="#F3D9DA"/>
<path d="M122.361 239.129C122.375 239.182 122.388 239.222 122.428 239.262C126.521 237.302 130.455 234.929 134.135 232.209C134.121 232.169 134.121 232.142 134.121 232.076C130.415 234.809 126.455 237.169 122.361 239.129Z" fill="#F3D9DA"/>
<path d="M275.681 177.525L269.987 176.511C269.467 177.978 268.614 179.431 267.387 180.791C267.307 180.885 267.067 181.018 266.681 181.205C265.094 182.551 263.201 183.351 261.174 183.965C258.427 188.245 259.321 190.725 262.001 192.018C267.801 191.485 272.041 185.058 275.681 177.525Z" fill="#F3D9DA"/>
<path d="M115.575 128.604C115.895 127.004 116.295 125.391 116.748 123.791C116.428 123.778 116.095 123.764 115.775 123.764C115.588 123.764 115.401 123.764 115.215 123.751C113.201 123.724 111.175 123.751 109.135 123.831V123.911C110.575 124.244 111.908 124.871 112.988 125.711V125.724C114.015 126.511 114.895 127.498 115.575 128.604Z" fill="#9797AA"/>
<path d="M101.321 232.236C102.547 232.169 103.761 231.983 104.921 231.689C103.761 231.956 102.547 232.143 101.307 232.196C101.307 232.209 101.307 232.236 101.321 232.236Z" fill="#FAB796"/>
<path d="M101.308 167.205C92.001 154.365 87.441 141.631 86.7877 129.418C84.841 130.805 83.0543 132.031 81.6943 132.965C81.2277 133.351 80.7743 133.751 80.3477 134.165C80.161 134.351 79.9743 134.511 79.801 134.698C79.3477 135.071 78.921 135.458 78.5077 135.858C78.3743 136.045 78.241 136.218 78.1343 136.405C77.9743 136.565 77.8277 136.725 77.6677 136.898C74.8943 141.405 75.001 147.765 77.201 152.591C79.5877 157.858 84.2677 161.831 89.4277 164.365C89.8543 164.605 90.281 164.805 90.7477 165.005C94.081 166.485 97.681 167.351 101.308 167.205Z" fill="#9797AA"/>
<path d="M95.3077 115.031C97.961 114.204 100.734 113.764 103.534 113.604H103.548C103.601 113.551 103.668 113.511 103.721 113.458C103.801 113.458 103.854 113.444 103.934 113.444C109.814 108.444 115.748 103.538 121.761 98.7109C119.334 95.3109 120.001 90.0176 119.201 85.9109C118.401 81.8042 116.334 77.3242 112.308 76.2442C111.601 76.0442 110.881 75.9776 110.174 76.0309C97.4944 88.6842 89.161 103.298 87.1477 118.964C88.1077 118.364 89.081 117.778 90.081 117.258C90.0944 117.271 90.0944 117.271 90.0944 117.258C91.761 116.364 93.481 115.604 95.2677 115.031H95.3077Z" fill="#9797AA"/>
<path d="M120.134 114.711C124.201 105.805 130.428 97.4046 138.974 89.938C137.974 89.0046 136.761 88.3246 135.508 87.938C130.908 91.458 126.321 95.0446 121.801 98.6713C121.788 98.698 121.788 98.698 121.761 98.7113C115.748 103.538 109.814 108.445 103.934 113.445C104.348 113.405 104.761 113.378 105.188 113.365C110.214 113.191 115.228 113.685 120.134 114.711Z" fill="#9797AA"/>
<path d="M90.4008 182.152C87.8408 182.045 82.9208 181.285 77.6675 179.992C81.5875 184.298 86.1075 188.418 91.2941 192.338C94.5075 191.552 97.5608 189.845 100.294 187.965C101.401 187.192 102.561 186.365 103.814 185.938L102.734 181.032C98.6675 181.885 94.5475 182.312 90.4008 182.152Z" fill="#9797AA"/>
<path d="M91.8675 138.271C93.8275 143.698 99.4675 147.671 105.254 147.404C108.721 147.258 112.028 145.538 114.308 142.951C114.308 142.938 114.308 142.924 114.321 142.924C114.188 138.138 114.601 133.364 115.574 128.658C114.894 127.551 114.014 126.564 112.988 125.791C111.921 128.364 111.134 130.191 110.108 132.524C109.228 134.551 108.601 136.538 107.721 138.511C107.761 134.711 107.494 130.271 106.761 126.191C106.641 125.538 106.534 124.724 106.401 124.044C105.881 124.071 105.348 124.111 104.841 124.151C101.974 124.404 99.1075 124.778 96.3075 125.444C94.3342 126.884 92.4142 129.018 91.5742 131.338C91.4942 131.551 91.4275 131.778 91.3609 132.018C91.3075 132.258 91.2542 132.511 91.2009 132.764C91.0275 133.938 91.0675 135.138 91.2942 136.311C91.3609 136.644 91.4409 136.978 91.5342 137.311C91.6275 137.631 91.7475 137.964 91.8675 138.271Z" fill="#5A5A66"/>
<path d="M143.668 123.711C148.761 114.991 155.748 107.058 164.601 100.538C163.108 98.258 160.694 96.7246 158.028 97.1246C154.428 97.658 152.241 101.218 149.921 104.058C147.601 106.885 143.428 109.311 140.521 107.071C141.774 102.471 142.974 97.4846 141.201 93.058C140.721 91.8713 139.948 90.7913 138.974 89.938C130.428 97.4046 124.201 105.805 120.134 114.711C128.334 116.405 136.268 119.591 143.668 123.711Z" fill="#F3D9DA"/>
<path d="M147.921 21.8178C153.628 20.6311 160.428 23.6578 160.774 29.4178C160.961 33.1778 158.508 36.4845 156.188 39.4178C153.454 42.8845 150.734 46.3378 148.028 49.7911C220.974 14.1511 337.881 19.8578 377.761 121.378C386.321 118.911 395.588 116.684 404.268 114.991C403.548 14.8711 240.348 -18.7955 147.921 21.8178Z" fill="#F3D9DA"/>
<path d="M86.7876 129.418C87.4409 141.631 92.0009 154.364 101.308 167.204C102.548 167.151 103.761 166.964 104.921 166.698C104.974 166.698 105.014 166.684 105.068 166.671C105.081 166.671 105.108 166.671 105.121 166.644C106.268 166.364 107.388 165.991 108.481 165.511C110.534 164.631 112.494 163.498 114.334 162.164C114.694 161.898 115.054 161.631 115.401 161.364C115.921 160.991 116.428 160.578 116.921 160.178V160.151C115.308 154.458 114.428 148.698 114.321 142.978C112.041 145.578 108.734 147.311 105.254 147.458C99.4676 147.724 93.8276 143.764 91.8676 138.324C91.7343 137.991 91.6276 137.658 91.5343 137.311C91.4409 136.978 91.3609 136.644 91.2943 136.311C91.0676 135.138 91.0276 133.938 91.2009 132.764C91.2543 132.511 91.3076 132.258 91.3609 132.018C91.4276 131.764 91.4943 131.511 91.5743 131.271C92.4143 128.964 94.3209 126.871 96.2943 125.404C96.2009 125.431 96.1209 125.444 96.0276 125.484C93.9476 126.071 89.8543 128.431 86.8676 129.364C86.8543 129.378 86.8409 129.378 86.8143 129.378C86.8009 129.391 86.8009 129.404 86.7876 129.418Z" fill="#9797AA"/>
<path d="M120.401 183.271C121.801 182.058 123.094 180.684 124.521 179.471C122.161 178.444 119.814 177.444 117.414 176.458C115.307 177.284 113.161 178.084 111.001 178.791C113.067 180.978 115.294 183.164 117.667 185.351C118.627 184.751 119.561 184.031 120.401 183.271Z" fill="#F3D9DA"/>
<path d="M90.4008 182.151C94.5474 182.311 98.6674 181.885 102.734 181.031C105.507 180.458 108.281 179.698 111.001 178.791C110.961 178.751 110.921 178.738 110.894 178.698C108.201 179.591 105.454 180.351 102.667 180.898C98.6141 181.751 94.4808 182.178 90.3474 182.018C87.7474 181.925 82.8008 181.151 77.5208 179.831C77.5608 179.871 77.6008 179.925 77.6541 179.965C77.6541 179.991 77.6541 179.991 77.6674 179.991C82.9208 181.285 87.8408 182.045 90.4008 182.151Z" fill="#F3D9DA"/>
<path d="M125.014 179.058C133.947 194.324 148.307 208.364 167.534 219.138C167.641 219.218 167.761 219.271 167.854 219.311C167.947 219.364 168.041 219.404 168.134 219.458C168.187 219.484 168.241 219.511 168.281 219.538C151.761 209.618 141.321 195.404 136.667 179.831C134.987 179.458 133.427 178.564 131.974 177.631C131.281 177.178 130.547 176.684 129.721 176.644C129.027 176.604 128.334 176.884 127.734 177.191C126.761 177.724 125.867 178.351 125.014 179.058Z" fill="#FAB796"/>
<path d="M59.1742 171.271C59.3208 167.845 61.1208 163.098 63.5342 158.231C61.8542 154.285 60.5742 150.231 59.6808 146.151C59.1475 147.031 58.6542 147.951 58.2142 148.885C57.0275 151.338 56.2008 153.925 56.3342 156.605C56.5475 159.818 58.4408 167.311 59.1742 171.271Z" fill="#9797AA"/>
<path d="M122.361 174.138C126.454 172.178 130.414 169.818 134.121 167.084C132.801 154.138 135.161 140.831 141.014 128.738C137.908 127.431 134.694 126.418 131.401 125.644H131.388C129.348 125.178 127.268 124.804 125.161 124.511C123.868 124.324 122.561 124.191 121.254 124.071L121.241 124.444C128.321 131.644 130.161 142.391 125.094 151.124C123.934 153.111 122.468 154.871 120.868 156.471C120.641 156.711 120.414 156.938 120.188 157.164C119.921 157.431 119.654 157.698 119.388 157.951C119.001 158.324 118.614 158.698 118.201 159.058C117.974 159.271 117.748 159.471 117.508 159.684C117.321 159.831 117.108 160.004 116.921 160.151V160.178C118.228 164.884 120.054 169.551 122.361 174.138Z" fill="white"/>
<path d="M134.134 167.218C144.108 159.911 152.254 150.045 156.494 138.605C156.548 139.365 156.574 140.151 156.574 140.925C165.121 124.445 182.481 111.578 208.948 107.471C288.348 95.1912 322.561 144.978 348.908 187.151C347.934 182.005 346.708 171.858 345.868 161.885C317.454 101.898 263.828 66.4579 192.534 86.9912C181.801 90.0846 172.468 94.7646 164.601 100.538C165.534 101.911 166.108 103.565 166.201 105.191C166.454 109.485 164.508 113.311 162.974 117.311C161.041 122.405 158.201 127.271 155.588 132.058C155.868 132.645 155.908 133.311 156.001 133.978C156.228 135.458 156.374 136.978 156.454 138.458C151.748 134.205 146.561 131.005 141.028 128.711C141.014 128.711 141.014 128.711 141.014 128.738C146.534 131.031 151.708 134.205 156.441 138.471C152.201 149.911 144.068 159.778 134.121 167.085C134.121 167.151 134.121 167.178 134.134 167.218Z" fill="#FAB796"/>
<path d="M289.881 152.685C269.988 139.925 280.495 140.311 263.468 155.711C263.908 156.205 264.361 156.725 264.801 157.285C265.028 157.565 265.241 157.845 265.455 158.138C266.241 159.191 267.001 160.325 267.681 161.538C267.868 161.845 268.041 162.178 268.201 162.498C268.415 162.885 268.601 163.285 268.788 163.685C268.881 163.885 268.975 164.098 269.068 164.311C269.801 166.031 270.361 167.818 270.615 169.631C270.655 169.898 270.695 170.165 270.708 170.418C270.721 170.551 270.735 170.698 270.748 170.831C270.881 172.751 270.668 174.671 269.988 176.511L275.681 177.525C280.681 167.178 284.575 154.738 289.881 152.685Z" fill="#9797AA"/>
<path d="M63.6143 223.396C63.5743 223.343 63.561 223.289 63.5343 223.223C61.121 228.089 59.321 232.836 59.1743 236.263C59.1876 236.396 59.201 236.503 59.241 236.623C59.3343 233.196 61.1476 228.356 63.6143 223.396Z" fill="white"/>
<path d="M120.401 183.271C119.561 184.031 118.627 184.751 117.667 185.351C130.027 196.765 146.467 208.098 167.534 219.138C148.307 208.365 133.947 194.325 125.014 179.058C124.841 179.191 124.694 179.338 124.521 179.471C123.094 180.685 121.801 182.058 120.401 183.271Z" fill="#9797AA"/>
<path d="M105.121 185.631C104.694 185.671 104.228 185.778 103.814 185.938C102.561 186.365 101.401 187.191 100.294 187.965C97.5609 189.845 94.5075 191.551 91.2942 192.338C111.028 207.271 140.134 219.005 180.001 225.378C176.121 223.778 172.494 221.991 169.108 220.018C169.094 220.018 169.054 219.991 169.028 219.978C168.788 219.858 168.534 219.711 168.281 219.538C168.241 219.511 168.188 219.485 168.134 219.458C168.041 219.405 167.948 219.365 167.854 219.311C167.761 219.271 167.641 219.218 167.534 219.138C146.468 208.098 130.028 196.765 117.668 185.351C115.881 186.431 113.908 187.125 111.854 186.938C109.588 186.711 107.401 185.378 105.121 185.631Z" fill="#F3D9DA"/>
<path d="M149.921 104.057C152.241 101.217 154.428 97.6575 158.028 97.1242C160.694 96.7242 163.108 98.2575 164.601 100.537C172.468 94.7642 181.801 90.0842 192.534 86.9908C263.828 66.4575 317.454 101.897 345.868 161.884C344.868 149.617 344.454 137.604 345.841 135.417C346.721 134.044 348.761 132.551 351.668 130.991C351.641 130.631 351.628 130.271 351.601 129.911C317.108 63.0575 234.574 34.1375 156.254 77.8708C149.694 81.5242 143.961 85.5642 138.974 89.9375C139.948 90.7908 140.721 91.8708 141.201 93.0575C142.974 97.4842 141.774 102.471 140.521 107.071C143.428 109.311 147.601 106.884 149.921 104.057Z" fill="#F3D9DA"/>
<path d="M63.6143 158.405C61.1476 163.365 59.3343 168.205 59.241 171.631V171.671C62.3076 175.165 70.2276 178.018 77.521 179.831C71.401 173.071 66.7876 165.885 63.6143 158.405Z" fill="white"/>
<path d="M86.8676 194.356C89.8542 193.422 93.9476 191.062 96.0276 190.476C93.4409 191.076 90.9209 191.942 88.5609 193.116C87.9876 193.529 87.4142 193.956 86.8676 194.356Z" fill="#9797AA"/>
<path d="M122.428 174.271C121.388 174.764 120.348 175.231 119.281 175.698C118.654 175.964 118.041 176.204 117.414 176.458C119.814 177.444 122.161 178.444 124.521 179.471C124.694 179.338 124.841 179.191 125.014 179.058C124.081 177.484 123.228 175.884 122.428 174.271Z" fill="#F3D9DA"/>
<path d="M63.6144 223.396C67.5478 215.436 73.1344 207.129 75.8811 203.903C76.4144 203.303 76.9744 202.676 77.5211 202.063C77.6678 201.783 77.8411 201.529 78.0278 201.263C77.2678 202.076 76.5078 202.943 75.7878 203.796C73.0411 206.996 67.4678 215.263 63.5344 223.223C63.5611 223.289 63.5744 223.343 63.6144 223.396Z" fill="#F3D9DA"/>
<path d="M86.8675 194.356C87.4142 193.956 87.9875 193.529 88.5608 193.116C88.1342 193.329 87.7475 193.529 87.3475 193.756C87.1475 193.876 86.9608 193.969 86.7742 194.103C86.7742 194.183 86.7742 194.276 86.7875 194.369H86.8142C86.8408 194.369 86.8542 194.369 86.8675 194.356Z" fill="#F3D9DA"/>
<path d="M102.508 80.5511C104.388 78.1378 107.228 76.1778 110.174 76.0311C116.161 70.0444 123.121 64.4978 130.828 59.4844C131.588 52.6711 132.654 45.6311 134.148 40.1778C135.841 34.0444 138.308 27.5644 143.361 23.8978C143.334 23.9244 143.268 23.9378 143.228 23.9644C125.508 32.4711 110.041 42.8978 97.3609 54.5244C96.4943 56.5778 95.6676 58.6311 94.8143 60.6844C94.7076 59.4844 94.6409 58.3244 94.5476 57.1511C87.2543 64.1378 80.9343 71.5511 75.7209 79.1911L79.5476 79.4578C86.9209 77.7378 95.1476 82.9644 96.7476 90.3378C98.8143 87.1778 100.161 83.5511 102.508 80.5511Z" fill="#9797AA"/>
<path d="M105.254 212.449C108.734 212.303 112.041 210.569 114.321 207.969C114.308 207.969 114.308 207.956 114.308 207.943C112.028 210.529 108.721 212.249 105.254 212.396C99.4678 212.663 93.8278 208.689 91.8678 203.263C91.7478 202.956 91.6278 202.623 91.5344 202.303C91.6278 202.649 91.7344 202.983 91.8678 203.316C93.8278 208.756 99.4678 212.716 105.254 212.449Z" fill="#9797AA"/>
<path d="M103.534 178.596C96.3342 184.676 96.0009 184.356 93.2142 188.903C93.5742 187.943 89.6942 189.756 86.6942 191.463C86.6942 192.343 86.7209 193.209 86.7742 194.103C86.9609 193.969 87.1475 193.876 87.3475 193.756C87.7475 193.529 88.1342 193.329 88.5609 193.116C97.0142 186.996 107.481 178.796 103.801 178.583H103.761C103.681 178.583 103.628 178.583 103.548 178.596H103.534Z" fill="#F3D9DA"/>
<path d="M86.6945 191.462C84.8145 192.542 83.2811 193.596 83.3478 193.876C83.6011 194.809 84.5745 194.916 85.8945 194.609C86.1878 194.449 86.4678 194.249 86.7745 194.102C86.7211 193.209 86.6945 192.342 86.6945 191.462Z" fill="#F3D9DA"/>
<path d="M141.014 193.729C141.014 193.702 141.014 193.702 141.027 193.702C137.921 192.396 134.707 191.396 131.401 190.636C134.694 191.409 137.907 192.422 141.014 193.729Z" fill="#5A5A66"/>
<path d="M143.614 188.796C147.108 190.742 150.494 192.902 153.721 195.222C154.441 195.742 155.161 196.289 155.588 197.049C155.588 197.009 155.561 196.969 155.548 196.929C155.148 196.156 154.401 195.609 153.708 195.089C150.494 192.796 147.148 190.649 143.668 188.702C143.654 188.742 143.628 188.782 143.614 188.796Z" fill="#9797AA"/>
<path d="M131.401 125.644C134.707 126.404 137.921 127.404 141.027 128.711C141.827 127.057 142.681 125.431 143.614 123.804C136.201 119.671 128.281 116.497 120.081 114.831C118.721 117.751 117.627 120.751 116.747 123.791C117.641 123.804 118.534 123.844 119.427 123.911C120.041 123.937 120.641 123.977 121.254 124.044V124.057C122.561 124.177 123.867 124.324 125.161 124.511C127.267 124.791 129.347 125.164 131.387 125.644H131.401Z" fill="#FAB796"/>
<path d="M80.2008 190.831C82.2675 191.764 84.4408 192.551 86.7208 192.738C88.2675 192.871 89.7875 192.698 91.2942 192.338C86.1075 188.418 81.5875 184.298 77.6675 179.991C77.6542 179.991 77.6542 179.991 77.6542 179.964C70.3075 178.138 62.3208 175.271 59.2408 171.738C63.7608 179.338 72.2808 187.244 80.2008 190.831Z" fill="#F3D9DA"/>
<path d="M135.508 87.9377C136.761 88.3243 137.974 89.0043 138.974 89.9377C143.961 85.5643 149.694 81.5243 156.254 77.871C234.574 34.1377 317.108 63.0577 351.601 129.911C353.401 129.431 355.214 128.951 357.041 128.458C362.681 126.058 369.921 123.618 377.761 121.378C337.881 19.8577 220.974 14.151 148.028 49.791C141.881 57.5643 135.748 65.3377 129.628 73.111C129.921 69.0844 130.294 64.3243 130.828 59.4844C123.121 64.4977 116.161 70.0443 110.174 76.031C110.881 75.9777 111.601 76.0443 112.308 76.2443C116.334 77.3243 118.401 81.8043 119.201 85.911C120.001 90.0177 119.334 95.311 121.761 98.711C121.788 98.6977 121.788 98.6977 121.801 98.671C126.321 95.0443 130.908 91.4577 135.508 87.9377Z" fill="#FAB796"/>
<path d="M121.241 189.436L121.255 189.063H121.201L121.175 189.463C128.268 196.649 130.108 207.423 125.041 216.143C123.908 218.103 122.455 219.849 120.868 221.463C122.468 219.863 123.935 218.103 125.095 216.116C130.161 207.383 128.321 196.636 121.241 189.436Z" fill="#9797AA"/>
<path d="M148.028 114.783C141.961 117.729 136.201 120.983 130.828 124.476C130.294 129.316 129.921 134.076 129.628 138.103C135.748 130.329 141.881 122.556 148.028 114.783Z" fill="#9797AA"/>
</g>
</svg>
