<svg width="304" height="220" viewBox="0 0 304 220" fill="none" xmlns="http://www.w3.org/2000/svg">
<path d="M-18.0125 151.045C-16.7325 150.218 -14.8392 149.511 -12.5325 148.951C-11.7592 148.751 -10.9325 148.591 -10.0792 148.431C1.62749 146.258 20.3208 147.151 24.4408 153.098C35.6275 169.325 9.42749 172.178 4.76083 179.205C2.02749 183.325 0.947495 188.458 8.33416 188.645C9.20082 188.671 14.6808 187.031 21.2142 184.898C23.3742 184.178 25.6808 183.418 27.9608 182.658C32.0008 180.551 36.3608 180.098 40.1742 178.965C40.2808 178.791 40.4008 178.605 40.5342 178.418L40.4675 178.258C42.8675 177.378 44.7208 176.645 45.6808 176.205C47.0008 175.085 48.1342 173.591 48.9875 171.511C49.6675 169.671 49.8808 167.751 49.7475 165.831C49.7342 165.698 49.7208 165.551 49.7075 165.418C49.6942 165.151 49.6542 164.885 49.6142 164.631C49.3608 162.818 48.8008 161.031 48.0675 159.311C47.9742 159.098 47.8808 158.898 47.7875 158.685C47.6008 158.285 47.4142 157.885 47.2008 157.498C47.0275 157.178 46.8542 156.858 46.6808 156.538C46.0008 155.325 45.2408 154.191 44.4542 153.138C44.2408 152.845 44.0275 152.551 43.8008 152.285C43.3608 151.725 42.9075 151.205 42.4675 150.711C41.7875 149.951 41.1208 149.285 40.4808 148.738C29.5342 139.098 6.02749 131.365 -8.15918 131.725C-44.9725 132.578 -50.7858 177.631 -32.9325 202.951C-21.1592 219.671 -0.545841 219.125 18.5742 221.325C20.6942 221.565 22.8142 221.858 24.8942 222.218C26.3608 222.591 27.8808 223.125 29.4808 223.711C31.0675 224.311 32.7075 224.965 34.3742 225.671C49.7608 231.485 75.1075 238.405 82.0008 217.658C84.3208 203.845 79.7075 187.711 65.8808 183.098C63.5742 199.231 47.4542 206.138 31.0008 208.658C29.0408 208.805 27.0675 208.858 25.1075 208.818C23.1742 208.765 21.2275 208.631 19.3475 208.391C17.1342 208.365 14.6808 207.925 12.0542 207.138C11.2808 206.898 10.4808 206.631 9.68082 206.325C9.68082 206.325 9.68082 206.338 9.66749 206.325C8.86749 206.031 8.05416 205.698 7.24083 205.338C6.14749 204.871 5.04082 204.351 3.93415 203.765C3.93415 203.765 3.92083 203.778 3.92083 203.765C3.08083 203.338 2.25416 202.885 1.41416 202.405C0.854156 202.085 0.307491 201.765 -0.25251 201.418C-0.812511 201.085 -1.37251 200.738 -1.93251 200.365C-3.59917 199.298 -5.23917 198.125 -6.85251 196.898C-8.46584 195.658 -10.0258 194.351 -11.5458 192.991C-12.0392 192.538 -12.5325 192.085 -13.0258 191.605C-14.4925 190.218 -15.8925 188.765 -17.1992 187.271C-17.6392 186.778 -18.0658 186.271 -18.4792 185.765C-18.8925 185.258 -19.2925 184.751 -19.6792 184.245C-27.3725 174.165 -30.3858 162.845 -22.1325 154.405C-21.8525 154.111 -21.5592 153.818 -21.2392 153.538C-20.2925 152.671 -19.2258 151.845 -18.0125 151.045Z" fill="#F3D9DA"/>
<path d="M135.428 183.804C132.428 174.391 128.908 165.391 124.868 156.884C125.708 166.858 126.934 177.004 127.908 182.151C131.068 187.191 134.108 192.124 137.094 196.831C136.108 194.098 135.881 191.084 135.708 188.191C135.614 186.711 135.534 185.244 135.428 183.804Z" fill="#FAB796"/>
<path d="M-6.85241 196.898C-5.23908 198.124 -3.59908 199.284 -1.93241 200.364C-1.37241 200.738 -0.812414 201.084 -0.252415 201.418C0.307585 201.751 0.867584 202.084 1.41425 202.404C2.25425 202.871 3.08092 203.324 3.92092 203.764C3.92092 203.778 3.93425 203.764 3.93425 203.764C5.04092 204.338 6.14759 204.858 7.24092 205.338C8.06758 205.684 8.86758 206.018 9.66758 206.324C9.68092 206.338 9.68092 206.324 9.68092 206.324C10.4809 206.618 11.2809 206.884 12.0543 207.124C0.0809212 199.964 -8.55908 191.671 -13.5591 178.218C-15.1191 173.951 -20.1591 150.924 -10.5191 148.524C-11.2257 148.644 -11.8924 148.791 -12.5324 148.951C-14.8391 149.511 -16.7324 150.218 -18.0124 151.044C-19.2257 151.844 -20.2924 152.671 -21.2391 153.538C-21.5457 153.818 -21.8524 154.111 -22.1324 154.404C-30.3857 162.844 -27.3724 174.164 -19.6791 184.244C-19.2924 184.751 -18.8924 185.258 -18.4791 185.764C-18.0657 186.271 -17.6391 186.778 -17.1991 187.271C-15.8924 188.764 -14.4924 190.218 -13.0257 191.604C-12.5457 192.071 -12.0524 192.538 -11.5457 192.991C-10.0257 194.351 -8.46575 195.658 -6.85241 196.898Z" fill="#9797AA"/>
<path d="M144.028 192.418C161.694 192.311 179.348 191.151 196.881 188.978C201.268 188.431 206.148 187.551 208.788 184.005C210.921 181.138 211.001 177.298 211.001 173.725C210.974 163.071 210.121 143.138 207.308 132.031C206.494 130.178 205.428 128.325 203.708 127.271C201.428 125.925 198.548 126.271 195.934 126.711C177.841 129.671 160.654 133.218 143.201 138.845C141.441 155.831 141.801 175.498 144.028 192.418ZM135.708 188.191C135.614 186.711 135.534 185.245 135.428 183.805C134.148 163.351 131.894 146.885 130.668 125.991C132.228 125.165 134.028 124.311 136.041 123.458C143.028 121.578 150.121 119.631 157.294 117.711C165.854 115.405 174.548 113.191 183.268 111.178V109.991C199.348 106.845 213.374 105.525 217.081 107.978C233.454 118.818 223.134 190.538 223.041 208.565C223.041 218.991 160.881 217.471 153.028 214.991C128.388 207.178 136.388 213.791 128.401 184.378C128.241 183.805 128.081 183.058 127.908 182.151C131.068 187.191 134.108 192.125 137.094 196.831C136.108 194.098 135.881 191.085 135.708 188.191Z" fill="#5A5A66"/>
<path d="M54.6808 172.525L48.9874 171.511C48.4674 172.978 47.6141 174.431 46.3874 175.791C46.3074 175.885 46.0674 176.018 45.6808 176.205C44.0941 177.551 42.2008 178.351 40.1741 178.965C37.4274 183.245 38.3208 185.725 41.0008 187.018C46.8008 186.485 51.0408 180.058 54.6808 172.525Z" fill="#F3D9DA"/>
<path d="M166.121 148.365C167.148 153.898 168.161 159.445 169.188 164.965C169.548 166.965 170.041 169.165 171.694 170.325C172.961 171.205 174.601 171.258 176.121 171.258C182.081 171.271 188.054 170.938 193.961 170.271C196.174 162.911 194.148 153.231 194.241 145.578C192.761 144.698 190.894 144.911 189.188 145.138C181.268 146.178 174.068 147.298 166.121 148.365ZM195.934 126.711C198.548 126.271 201.428 125.925 203.708 127.271C205.428 128.325 206.494 130.178 207.308 132.031C210.121 143.138 210.974 163.071 211.001 173.725C211.001 177.298 210.921 181.138 208.788 184.005C206.148 187.551 201.268 188.431 196.881 188.978C179.348 191.151 161.694 192.311 144.028 192.418C141.801 175.498 141.441 155.831 143.201 138.845C160.654 133.218 177.841 129.671 195.934 126.711Z" fill="#9797AA"/>
<path d="M-73.079 16.8178C-67.3723 15.6311 -60.5723 18.6578 -60.2256 24.4178C-60.039 28.1778 -62.4923 31.4845 -64.8123 34.4178C-67.5456 37.8845 -70.2656 41.3378 -72.9723 44.7911C-0.02565 9.15114 116.881 14.8578 156.761 116.378C165.321 113.911 174.588 111.684 183.268 109.991C182.548 9.87114 19.3477 -23.7955 -73.079 16.8178Z" fill="#F3D9DA"/>
<path d="M214.081 133.543C205.254 135.236 196.348 139.223 191.508 146.756C208.868 145.169 226.228 143.596 243.601 142.023C244.774 141.903 246.081 141.836 247.014 142.569C248.268 143.556 248.201 145.436 248.028 147.036C245.788 166.116 243.534 185.196 241.294 204.276C252.921 189.996 250.041 169.036 256.094 151.649C257.281 148.289 259.654 144.489 263.228 144.743C264.881 144.849 266.321 145.876 267.654 146.863C280.201 156.063 269.454 163.969 273.748 176.463C275.481 181.476 279.414 186.063 284.614 187.023C289.948 188.036 295.441 184.956 298.534 180.489C301.654 176.049 302.721 170.503 302.961 165.063C303.134 161.783 302.921 158.209 300.908 155.609C298.668 152.729 294.868 151.769 291.548 150.303C283.441 146.756 276.894 138.063 278.748 129.409C279.908 123.969 283.948 119.703 287.481 115.409C294.721 106.529 300.281 96.2893 303.761 85.3827C292.041 90.796 285.454 103.116 277.054 112.929C273.601 116.996 269.694 120.729 265.508 124.036C263.854 125.316 262.041 126.596 259.974 126.809C258.494 126.943 257.014 126.516 255.601 125.983C237.694 119.276 230.494 97.836 215.841 85.516C212.668 93.996 217.361 103.436 223.321 110.236C229.294 117.036 236.761 122.769 240.828 130.849C231.934 132.103 222.868 131.876 214.081 133.543Z" fill="#9797AA"/>
<path d="M-86.8656 162.218C-76.8922 154.911 -68.7456 145.045 -64.5056 133.605C-64.4522 134.365 -64.4256 135.151 -64.4256 135.925C-55.8789 119.445 -38.5189 106.578 -12.0522 102.471C67.3477 90.1912 101.561 139.978 127.908 182.151C126.934 177.005 125.708 166.858 124.868 156.885C96.4544 96.8979 42.8277 61.4579 -28.4656 81.9912C-39.1989 85.0846 -48.5322 89.7646 -56.3989 95.5379C-55.4656 96.9112 -54.8922 98.5646 -54.7989 100.191C-54.5456 104.485 -56.4922 108.311 -58.0256 112.311C-59.9589 117.405 -62.7989 122.271 -65.4122 127.058C-65.1322 127.645 -65.0922 128.311 -64.9989 128.978C-64.7722 130.458 -64.6256 131.978 -64.5456 133.458C-69.2522 129.205 -74.4389 126.005 -79.9722 123.711C-79.9856 123.711 -79.9856 123.711 -79.9856 123.738C-74.4656 126.031 -69.2922 129.205 -64.5589 133.471C-68.7989 144.911 -76.9322 154.778 -86.8789 162.085C-86.8789 162.151 -86.8789 162.178 -86.8656 162.218Z" fill="#FAB796"/>
<path d="M68.8813 147.685C48.988 134.925 59.4947 135.311 42.468 150.711C42.908 151.205 43.3614 151.725 43.8014 152.285C44.028 152.565 44.2414 152.845 44.4547 153.138C45.2414 154.191 46.0014 155.325 46.6814 156.538C46.868 156.845 47.0413 157.178 47.2013 157.498C47.4147 157.885 47.6014 158.285 47.788 158.685C47.8814 158.885 47.9747 159.098 48.068 159.311C48.8014 161.031 49.3614 162.818 49.6147 164.631C49.6547 164.898 49.6947 165.165 49.708 165.418C49.7213 165.551 49.7347 165.698 49.748 165.831C49.8813 167.751 49.668 169.671 48.988 171.511L54.6813 172.525C59.6813 162.178 63.5747 149.738 68.8813 147.685Z" fill="#9797AA"/>
<path d="M124.841 130.418C123.454 132.605 123.868 144.618 124.868 156.885C128.908 165.391 132.428 174.391 135.428 183.805C134.148 163.351 131.894 146.885 130.668 125.991C127.761 127.551 125.721 129.045 124.841 130.418Z" fill="#F3D9DA"/>
<path d="M-71.079 99.0575C-68.759 96.2175 -66.5723 92.6575 -62.9723 92.1242C-60.3056 91.7242 -57.8923 93.2575 -56.399 95.5375C-48.5323 89.7642 -39.199 85.0842 -28.4656 81.9908C42.8277 61.4575 96.4544 96.8975 124.868 156.884C123.868 144.617 123.454 132.604 124.841 130.417C125.721 129.044 127.761 127.551 130.668 125.991C130.641 125.631 130.628 125.271 130.601 124.911C96.1077 58.0575 13.5744 29.1375 -64.7456 72.8708C-71.3056 76.5242 -77.039 80.5642 -82.0256 84.9375C-81.0523 85.7908 -80.279 86.8708 -79.799 88.0575C-78.0256 92.4842 -79.2256 97.4708 -80.479 102.071C-77.5723 104.311 -73.399 101.884 -71.079 99.0575Z" fill="#F3D9DA"/>
<path d="M189.188 210.129C181.268 211.169 174.068 212.289 166.121 213.356C167.148 218.889 168.161 224.436 169.188 229.956C169.548 231.956 170.041 234.156 171.695 235.316C172.961 236.196 174.601 236.249 176.121 236.249C182.081 236.263 188.055 235.929 193.961 235.263C196.175 227.903 194.148 218.223 194.241 210.569C192.761 209.689 190.895 209.903 189.188 210.129Z" fill="#F3D9DA"/>
<path d="M-85.4925 82.9377C-84.2391 83.3243 -83.0258 84.0043 -82.0258 84.9377C-77.0391 80.5643 -71.3058 76.5243 -64.7458 72.871C13.5742 29.1377 96.1075 58.0577 130.601 124.911C132.401 124.431 134.214 123.951 136.041 123.458C141.681 121.058 148.921 118.618 156.761 116.378C116.881 14.8577 -0.0258026 9.15102 -72.9725 44.791C-79.1191 52.5643 -85.2525 60.3377 -91.3725 68.111C-91.0791 64.0844 -90.7058 59.3243 -90.1725 54.4844C-97.8791 59.4977 -104.839 65.0443 -110.826 71.031C-110.119 70.9777 -109.399 71.0443 -108.692 71.2443C-104.666 72.3243 -102.599 76.8043 -101.799 80.911C-100.999 85.0177 -101.666 90.311 -99.2391 93.711C-99.2125 93.6977 -99.2125 93.6977 -99.1991 93.671C-94.6791 90.0443 -90.0925 86.4577 -85.4925 82.9377Z" fill="#FAB796"/>
</svg>
