<svg width="210" height="711" viewBox="0 0 210 711" fill="none" xmlns="http://www.w3.org/2000/svg">
<path d="M165.904 327.949C166.11 327.978 166.301 328.022 166.521 328.096C168.8 328.846 170.874 332.493 172.315 334.331C177.153 340.551 182.064 346.889 184.888 354.256C185.535 355.962 186.064 357.711 186.446 359.52C187.711 365.505 187.314 371.858 184.329 377.137C180.447 383.974 170.242 387.592 163.036 384.474C161.61 375.74 160.316 366.976 161.551 358.329C162.933 348.771 166.918 337.566 165.904 327.949ZM175.403 355.917C176.888 354.447 176.109 351.432 174.08 350.859C172.05 350.315 169.83 352.506 170.374 354.535C170.889 356.564 173.888 357.403 175.403 355.917Z" fill="#F3D9DA"/>
<path d="M168.947 445.926C167.933 446.558 167.771 447.955 167.786 449.146C167.859 454.558 169.947 460.395 174.726 462.954C175.461 463.351 176.314 463.689 177.138 463.498C178.902 463.131 179.447 460.91 179.623 459.116C179.888 456.675 180.094 454.455 179.711 452.352C179.447 450.999 178.932 449.72 177.991 448.44C177.108 447.661 176.094 447.014 175.02 446.558C173.726 445.97 172.344 445.602 170.918 445.544C170.241 445.499 169.535 445.544 168.947 445.926Z" fill="#9797AA"/>
<path d="M14.5318 123.007C14.6201 123.786 14.6936 124.536 14.7965 125.316C14.9436 125.316 15.12 125.301 15.2818 125.301C19.7521 125.08 24.6488 121.478 23.6783 116.522C22.7372 111.699 17.5316 110.625 13.1055 110.508C13.5613 114.758 14.0907 118.948 14.5318 123.007Z" fill="#F3D9DA"/>
<path d="M107.702 691.938C107.555 692.629 107.408 693.379 106.908 693.908C106.305 694.511 105.349 694.629 104.511 694.776C100.746 695.394 97.2317 697.305 94.6731 700.114C97.9229 701.393 101.731 701.143 104.805 699.467C105.716 698.982 106.599 698.349 107.599 698.29C110.554 698.04 111.76 701.952 111.951 704.908C121.377 652.544 138.655 600.856 136.847 547.713L137.891 544.169C132.42 540.625 127.186 536.743 122.215 532.537C123.318 553.006 125.274 579.975 123.642 600.356C122.215 618.164 118.76 635.721 115.333 653.264C112.775 666.146 110.231 679.056 107.702 691.938Z" fill="#FAB796"/>
<path d="M99.5114 110.655C90.9237 110.92 82.6302 111.199 75.9983 111.39L76.0424 112.669C76.6453 125.051 77.2629 137.403 77.8952 149.77C77.9246 150.799 78.0129 151.902 78.7334 152.623C79.498 153.431 80.7333 153.505 81.8508 153.505C100.055 153.681 118.26 152.549 136.303 150.108C132.127 137.05 130.083 123.33 130.2 109.64V109.625C126.495 109.743 122.392 109.89 118.054 110.023C119.039 116.331 118.613 122.845 116.863 128.977C111.996 130.624 106.908 131.536 101.791 131.712C101.129 131.727 100.364 131.712 99.9231 131.198C99.5114 130.786 99.4967 130.109 99.4967 129.536C99.5114 123.227 99.5114 116.963 99.5114 110.655Z" fill="#FAB796"/>
<path d="M132.802 689.541C130.876 696.364 128.95 703.173 127.038 709.996C128.2 708.863 129.361 707.731 130.523 706.614C131.435 708.305 132.494 710.128 134.288 710.819C136.096 711.51 138.67 710.128 138.273 708.246C138.14 707.672 137.817 707.187 137.493 706.687C134.361 701.864 134.493 696.129 135.935 690.423L132.802 689.541Z" fill="#9797AA"/>
<path d="M9.3264 298.73C9.29699 299.965 9.26758 301.245 9.26758 302.568C9.26758 317.817 12.0174 338.713 14.2525 346.506C13.6349 328.096 13.782 312.538 14.429 293.892C14.4731 292.436 15.2672 285.216 16.7082 285.51C19.6345 303.391 20.2521 323.728 23.1784 341.609C22.4284 324.449 21.6491 307.288 20.8991 290.098C20.8109 288.157 21.252 285.554 23.1784 285.363C25.1047 285.202 26.0458 287.628 26.3399 289.54C29.6632 310.273 32.9718 331.007 36.251 351.741C35.0011 330.581 33.7218 309.45 32.4571 288.275C32.3248 285.952 33.2659 282.628 35.5305 283.128C36.4716 283.334 37.0892 284.202 37.5744 285.01C40.6625 290.289 41.236 296.642 41.5595 302.759C42.1477 314.111 42.5447 318.082 43.2505 329.346C43.427 332.154 44.1622 335.507 44.6769 338.154C45.1769 340.727 47.2355 347.874 49.0001 345.903C48.2796 324.655 47.5885 303.406 46.8973 282.187C46.7797 278.305 46.6326 274.32 44.9563 270.835C43.2946 267.335 39.6919 264.453 35.854 264.879C38.1626 204.898 32.4866 144.902 30.972 84.8772C30.8102 78.7159 30.2808 68.3048 22.5314 66.7608C20.8844 66.4225 19.4286 66.6284 18.2228 67.1725C14.6496 68.8342 12.8997 73.628 12.3997 77.5836C11.9292 81.1568 11.7233 84.7889 11.6939 88.5092C19.1198 87.3917 20.605 99.0674 13.3702 100.156C17.5464 101.552 19.6639 101.111 18.0758 105.876C17.3553 107.993 15.3113 109.64 13.0908 110.272C13.0908 110.361 13.1055 110.434 13.1055 110.508C17.5317 110.625 22.7372 111.699 23.6783 116.522C24.6489 121.478 19.7521 125.08 15.2819 125.301C15.1201 125.301 14.9437 125.316 14.7966 125.316C16.5024 140.153 18.7963 154.946 21.0315 169.71C23.2666 184.856 25.4282 200.031 26.6781 215.309C27.3104 223.074 27.7075 230.867 27.7663 238.69C27.7663 241.205 29.9132 262.63 28.0163 263.394C13.7379 269.129 9.89989 283.363 9.3264 298.73Z" fill="#9797AA"/>
<path d="M103.555 478.526C102.776 480.467 101.996 482.467 101.923 484.555C101.776 488.452 104.011 492.011 106.378 495.113C109.628 499.348 113.231 503.289 117.231 506.789C121.745 510.833 126.701 514.377 131.98 517.303C139.92 521.729 148.523 524.832 157.066 527.89C167.86 531.758 178.668 535.64 189.461 539.537C191.196 540.507 193.622 541.345 195.975 541.654C197.622 541.904 199.24 541.904 200.607 541.566C205.386 540.375 207.327 534.669 208.019 529.787C211.312 506.774 204.842 483.379 195.725 462.013C192.887 455.395 189.652 448.705 186.27 442.029C184.241 445.587 182.035 449.028 179.712 452.352C180.094 454.454 179.888 456.675 179.623 459.116C179.447 460.91 178.903 463.13 177.138 463.498C176.315 463.689 175.462 463.351 174.727 462.954C169.948 460.395 167.86 454.557 167.786 449.146C167.771 447.955 167.933 446.558 168.948 445.926C169.536 445.543 170.242 445.499 170.918 445.543C172.344 445.602 173.727 445.97 175.021 446.558C176.977 441.308 179.021 436.617 181.182 432.015C175.271 420.427 169.359 408.781 164.919 397.149C165.654 403.531 165.801 409.884 164.419 416.178C160.022 417.516 155.39 418.016 150.802 417.677C132.377 442.146 115.113 450.175 103.555 478.526Z" fill="#7E7E91"/>
<path d="M62.2638 111.846C53.2056 112.155 52.4997 111.023 52.6027 119.978C52.6762 127.183 53.632 134.491 54.3526 141.653C55.7789 155.49 57.7935 169.254 60.3668 182.9C90.6001 180.738 120.833 178.18 151.008 175.224C148.993 153.167 147.89 131.036 147.684 108.876C147.684 108.979 140.464 109.273 130.2 109.626V109.64C130.083 123.33 132.127 137.05 136.303 150.108C118.26 152.549 100.055 153.681 81.8507 153.505C80.7331 153.505 79.4979 153.431 78.7332 152.623C78.0127 151.902 77.9245 150.799 77.895 149.77C77.2627 137.403 76.6451 125.051 76.0422 112.669L75.9981 111.39C68.9839 111.611 63.8519 111.787 62.2638 111.846Z" fill="#7E7E91"/>
<path d="M99.5113 110.655C99.5113 116.963 99.5113 123.227 99.4966 129.536C99.4966 130.109 99.5113 130.786 99.923 131.197C100.364 131.712 101.129 131.727 101.791 131.712C106.908 131.536 111.996 130.624 116.863 128.977C118.613 122.845 119.039 116.331 118.054 110.022C112.084 110.258 105.731 110.463 99.5113 110.655Z" fill="#5A5A66"/>
<path d="M110.055 355.52C108.334 367.181 114.393 380.004 125.142 384.915C132.7 388.371 141.42 387.797 149.684 387.194C149.228 397.355 149.611 407.561 150.802 417.678C155.39 418.016 160.022 417.516 164.418 416.178C165.801 409.884 165.654 403.532 164.918 397.15C164.463 392.929 163.727 388.709 163.036 384.474C161.61 375.739 160.316 366.975 161.551 358.329C162.933 348.771 166.918 337.566 165.904 327.949C154.654 324.346 142.038 324.199 131.259 328.963C120.436 333.742 111.76 343.83 110.055 355.52Z" fill="#FAB796"/>
<path d="M162.095 585.504C152.331 620.193 142.553 654.867 132.803 689.541L135.935 690.424C136.965 686.424 138.626 682.439 140.288 678.763C157.11 641.442 171.521 603.062 183.403 563.888C167.286 559.859 151.846 553.154 137.891 544.169L136.847 547.713C146.038 556.639 157.919 562.727 170.536 564.991C166.198 571.049 164.11 578.358 162.095 585.504Z" fill="#9797AA"/>
<path d="M11.6935 88.5092C11.6788 92.3766 11.8406 96.3028 12.1641 100.244L13.3699 100.155C20.6047 99.0673 19.1195 87.3917 11.6935 88.5092Z" fill="#F3D9DA"/>
<path d="M117.23 506.789C116.392 511.509 115.936 518.715 116.083 523.464C116.128 524.699 116.172 525.979 116.716 527.096C117.186 528.082 118.025 528.846 118.848 529.611C119.966 530.611 121.098 531.596 122.215 532.537C127.186 536.743 132.421 540.625 137.891 544.169C151.846 553.153 167.286 559.859 183.402 563.888C187.137 564.829 190.887 565.594 194.681 566.255C193.166 557.888 194.343 549.992 195.975 541.654C193.622 541.345 191.196 540.507 189.461 539.537C178.667 535.64 167.859 531.758 157.066 527.89C148.522 524.832 139.92 521.729 131.979 517.303C126.7 514.377 121.745 510.833 117.23 506.789Z" fill="#9797AA"/>
<path d="M10.5762 110.508C11.0762 110.552 11.5762 110.552 12.0761 110.478C11.5615 110.478 11.0468 110.478 10.5762 110.508ZM13.0908 110.273C12.7673 110.361 12.4291 110.434 12.1056 110.478C12.4291 110.478 12.7673 110.478 13.1055 110.508C13.5613 114.758 14.0907 118.948 14.5319 123.007C14.6201 123.786 14.6936 124.536 14.7965 125.316C1.75333 125.419 -0.658271 104.494 0.135791 95.2736C2.31211 70.4812 20.0462 46.5416 37.3685 29.7781C54.0291 13.6174 74.5424 -0.116913 98.526 0.000732422C112.437 0.0595398 126.083 3.73578 139.376 7.50021C148.876 10.1912 159.081 12.8087 166.727 19.3818C185.02 35.0719 181.123 61.8788 177.432 82.7597C172.447 110.949 175.8 135.727 179.903 163.769C187.211 213.78 175.697 266.056 195.652 313.906C205.798 338.227 214.856 359.52 207.974 386.298C203.048 405.546 196.21 424.927 186.27 442.029C184.623 438.691 182.903 435.368 181.182 432.015C186.005 421.663 191.24 411.737 196.622 397.15C199.975 388.047 204.298 369.637 203.078 359.682C201.842 349.447 196.563 338.213 192.24 328.904C184.829 312.92 177.241 298.568 175.227 280.761C172.859 259.792 170.521 238.808 168.051 217.868C165.507 196.517 162.875 175.018 162.183 153.52C161.492 131.786 165.845 111.111 167.918 89.6416C169.595 72.3046 170.345 44.38 159.081 29.8369C149.464 17.3966 128.259 12.1176 113.584 9.75006C70.9103 2.91229 41.6623 36.7923 18.2228 67.1726C14.6495 68.8342 12.8996 73.628 12.3996 77.5836C11.9291 81.1569 11.7232 84.789 11.6938 88.5093C11.6791 92.3767 11.8409 96.3029 12.1644 100.244C12.3996 103.597 12.7232 106.964 13.0908 110.273Z" fill="#F3D9DA"/>
<path d="M47.3973 72.481C44.8534 74.8926 43.927 79.3629 46.4415 81.848C57.9701 77.8336 70.4546 77.9659 82.6449 78.1277C105.437 78.4218 128.23 78.7453 151.008 79.0541C153.669 56.5262 135.362 59.629 118.701 61.2465C98.1291 63.2317 77.3218 64.6433 56.9996 68.5989C53.5587 69.2754 49.956 70.0841 47.3973 72.481Z" fill="#5A5A66"/>
<path d="M12.1638 100.244C12.3991 103.596 12.7226 106.964 13.0902 110.272C15.3107 109.64 17.3546 107.993 18.0752 105.876C19.6633 101.111 17.5458 101.552 13.3696 100.155L12.1638 100.244Z" fill="#F3D9DA"/>
<path d="M111.657 89.0678C106.408 89.3472 49.7938 90.803 49.735 91.6412C49.3526 95.5233 49.4997 100.361 52.97 102.096C54.3523 102.817 55.9992 102.817 57.5432 102.787C85.0266 102.39 112.525 100.817 139.905 98.3319C148.434 97.5526 152.566 90.5383 142.611 87.5679C134.17 85.024 120.524 88.5826 111.657 89.0678Z" fill="#FAB796"/>
<path d="M194.417 354.947C191.446 342.668 177.844 330.787 166.521 328.096C168.801 328.845 170.874 332.492 172.315 334.33C177.153 340.551 182.065 346.888 184.888 354.255C185.535 355.961 186.064 357.711 186.447 359.52L187.005 359.387C189.652 358.241 192.167 356.726 194.417 354.947Z" fill="#5A5A66"/>
<path d="M179.712 452.351C182.035 449.028 184.241 445.587 186.27 442.028C184.623 438.69 182.903 435.367 181.182 432.014C179.021 436.617 176.977 441.308 175.021 446.557C176.094 447.013 177.109 447.66 177.991 448.44C178.932 449.719 179.447 450.998 179.712 452.351Z" fill="#9797AA"/>
</svg>
